<?xml version="1.0" encoding="utf-8"?>
<!-- Generator: Adobe Illustrator 27.5.0, SVG Export Plug-In . SVG Version: 6.00 Build 0)  -->
<svg version="1.1" xmlns="http://www.w3.org/2000/svg" xmlns:xlink="http://www.w3.org/1999/xlink" x="0px" y="0px"
	 viewBox="0 0 499.999 500" style="enable-background:new 0 0 499.999 500;" xml:space="preserve">
<g id="BACKGROUND">
</g>
<g id="OBJECTS">
	<g>
		<g>
			<g>
				<polygon style="fill:#FF965F;" points="280.397,139.442 280.257,138.302 274.899,124.267 273.253,139.17 273.394,140.312 				
					"/>
				<path style="fill:#7DB4D9;" d="M290.304,219.349c0.241,1.943-1.141,3.715-3.085,3.955l0,0c-1.944,0.241-3.715-1.141-3.955-3.084
					l-0.334-2.702c-0.241-1.945,1.14-3.715,3.084-3.956l0,0c1.944-0.24,3.716,1.14,3.956,3.085L290.304,219.349z"/>
				
					<rect x="277.964" y="138.439" transform="matrix(0.9924 -0.1228 0.1228 0.9924 -19.6254 35.9078)" style="fill:#FF965F;" width="7.094" height="77.474"/>
				
					<rect x="281.623" y="138.214" transform="matrix(0.9924 -0.1228 0.1228 0.9924 -19.5853 36.1328)" style="fill:#EA6D30;" width="3.421" height="77.474"/>
				
					<rect x="280.754" y="138.424" transform="matrix(0.9924 -0.1228 0.1228 0.9924 -19.6258 35.93)" style="fill:#7DB4D9;" width="1.764" height="77.474"/>
				
					<rect x="282.9" y="215.61" transform="matrix(0.9924 -0.1228 0.1228 0.9924 -24.4886 36.82)" style="fill:#7DB4D9;" width="7.094" height="2.913"/>
			</g>
			<polygon style="fill:#214B63;" points="276.071,127.244 274.898,124.267 274.514,127.438 			"/>
		</g>
		<g style="opacity:0.51;">
			<path style="fill:#7DB4D9;" d="M98.644,317.808c-2.451-3.084-4.981-6.239-8.378-8.235c-3.397-1.996-7.904-2.603-11.213-0.465
				c-2.275,1.47-3.731,4.034-6.139,5.275c-2.586,1.333-6.025,0.733-8.008-1.396c-1.982-2.13-2.334-5.604-0.818-8.087
				c2.219,1.358,5.124-1.47,4.74-4.043c-0.384-2.573-2.71-4.387-5.017-5.59c-2.307-1.203-4.869-2.149-6.556-4.129
				c-1.688-1.98-1.967-5.482,0.229-6.876c0.574-0.364,1.251-0.546,1.811-0.931c2.479-1.707,0.977-5.737-1.351-7.645
				c-2.328-1.907-5.447-3.337-6.307-6.221c-0.808-2.712,1.03-5.786,3.682-6.776c2.651-0.989,5.772-0.107,7.874,1.788
				c0.722,0.651,1.508,1.474,2.473,1.353c0.701-0.089,1.232-0.665,1.637-1.245c3.403-4.867,1.558-12.541-3.686-15.33
				c1.231-3.223,4.841-5.352,8.257-4.87c3.416,0.482,6.296,3.526,6.588,6.964c0.244,2.875-0.979,6.274,1.025,8.349
				c0.784,0.812,1.9,1.189,2.906,1.702c3.48,1.773,5.848,5.545,5.932,9.45c5.309-2.968,7.221-10.698,3.908-15.798
				c4.944-0.257,7.092-7.086,4.923-11.536c-2.169-4.45-6.783-7.051-10.891-9.812c-2.324-1.562-4.815-3.808-4.468-6.586
				c0.444-3.559,5.335-5.514,5.266-9.1c-0.049-2.531-2.532-4.186-4.37-5.927c-4.978-4.716-6.008-13.051-2.328-18.836
				c0.745-1.171,2.08-2.358,3.357-1.815c1.023,0.434,1.337,1.721,2.107,2.523c1.692,1.762,4.874,0.444,6.075-1.684
				c1.201-2.127,1.211-4.703,1.897-7.048c0.685-2.345,2.61-4.75,5.036-4.464c3.224,0.381,3.999,4.711,3.647,7.938
				c-0.352,3.227-0.548,7.342,2.357,8.793c3.297,1.647,6.691-1.953,8.634-5.085c0.385,3.189,4.685,3.703,7.883,4.014
				c3.197,0.312,7.138,3.445,5.088,5.918"/>
		</g>
		<g style="opacity:0.51;">
			<path style="fill:#7DB4D9;" d="M382.59,335.139c6.355-5.96,16.634-7.242,24.258-3.025c3.757,2.078,7.047,5.385,11.305,5.936
				c4.39,0.568,8.969-2.428,10.207-6.678c1.238-4.25-1.016-9.236-5.025-11.115c-0.569-0.267-1.183-0.489-1.617-0.943
				c-1.12-1.176-0.362-3.259,0.995-4.15s3.061-0.997,4.651-1.33c6.421-1.343,11.641-7.158,12.285-13.687
				c0.644-6.529-3.339-13.252-9.374-15.823c-0.194-6.018,8.36-10.245,6.905-16.087c-0.577-2.318-2.745-4.005-5.071-4.548
				c-3.578-0.835-7.603,0.877-9.483,4.034c-1.042,1.75-1.529,3.931-3.142,5.174c-3.476,2.678-8.676-2.012-8.112-6.363
				c0.564-4.352,4.331-7.48,7.847-10.107c1.132-0.845,2.301-1.725,2.981-2.963c2.554-4.646-3.187-10.18-1.993-15.346
				c1.563-6.76,12.523-6.373,15.836-12.469c2.497-4.595-0.82-10.36-5.074-13.403c-4.254-3.042-9.484-4.662-13.326-8.209
				c-0.637-0.589-1.246-1.251-1.536-2.069c-0.721-2.038,0.713-4.124,1.538-6.122c2.304-5.574-1.1-12.938-6.977-14.295
				c-5.877-1.357-12.363,4.407-11.236,10.333c0.361,1.898,1.305,4.053,0.135,5.59c-1.864,2.448-5.507-0.131-8.386-1.218
				c-3.217-1.215-7.185,0.019-9.145,2.844c-1.96,2.825-1.728,6.974,0.536,9.562c-4.484,2.477-9.876,2.623-14.671,4.428
				s-9.351,6.651-7.766,11.522c0.656,2.016,2.256,3.612,2.96,5.613c1.378,3.921-1.725,8.725-5.865,9.083
				c-4.14,0.357-8.02-3.845-7.334-7.944c0.614-3.67,4.161-7.023,2.868-10.512c-1.014-2.737-4.694-3.634-7.429-2.615
				c-2.735,1.02-4.721,3.365-6.578,5.617"/>
		</g>
		<g style="opacity:0.51;">
			<path style="fill:#7DB4D9;" d="M162.783,304.121c5.359,6.869,5.704,17.222,0.813,24.433c-2.41,3.553-6.002,6.53-6.936,10.72
				c-0.964,4.32,1.605,9.152,5.725,10.77c4.12,1.618,9.29-0.175,11.524-3.996c0.317-0.542,0.594-1.134,1.086-1.525
				c1.272-1.009,3.278-0.065,4.043,1.367c0.764,1.433,0.716,3.139,0.903,4.752c0.755,6.517,6.073,12.242,12.516,13.476
				c6.443,1.233,13.5-2.124,16.608-7.901c6.011,0.352,9.445,9.255,15.395,8.336c2.361-0.365,4.237-2.37,4.989-4.638
				c1.156-3.488-0.184-7.651-3.158-9.809c-1.648-1.196-3.777-1.879-4.868-3.598c-2.352-3.705,2.79-8.458,7.073-7.502
				c4.283,0.957,7.057,4.991,9.354,8.73c0.739,1.204,1.51,2.448,2.681,3.237c4.395,2.964,10.427-2.251,15.463-0.594
				c6.59,2.169,5.211,13.049,10.982,16.902c4.349,2.904,10.392,0.122,13.807-3.838s5.502-9.022,9.384-12.527
				c0.644-0.581,1.359-1.128,2.199-1.342c2.095-0.534,4.043,1.084,5.958,2.087c5.343,2.799,12.984,0.078,14.869-5.652
				c1.884-5.73-3.268-12.711-9.271-12.127c-1.923,0.187-4.155,0.933-5.579-0.372c-2.269-2.078,0.629-5.473,1.973-8.241
				c1.502-3.093,0.633-7.157-2.003-9.365c-2.635-2.208-6.788-2.353-9.571-0.333c-2.06-4.69-1.717-10.074-3.079-15.012
				c-1.362-4.938-5.776-9.915-10.771-8.779c-2.068,0.47-3.802,1.919-5.858,2.438c-4.029,1.017-8.533-2.508-8.514-6.664
				c0.02-4.156,4.556-7.638,8.576-6.583c3.599,0.944,6.616,4.78,10.208,3.81c2.818-0.762,4.045-4.345,3.277-7.162
				c-0.767-2.816-2.923-5.007-4.998-7.06"/>
		</g>
		<g>
			<g>
				<path style="fill:#4180A9;" d="M396.641,252.43c2.071-5.929,5.284-11.458,9.411-16.192c1.306,1.835,2.612,3.67,3.918,5.504
					c-0.604-5.265,1.775-10.523,5.246-14.527c3.471-4.005,7.964-6.964,12.396-9.87c1.471,1.997,3.218,3.791,5.175,5.316
					c2.243-2.12,0.103-6.303,1.904-8.811c0.569-0.793,1.456-1.287,2.32-1.742c10-5.26,20.981-8.645,32.207-9.927
					c2.142-0.245,4.553-0.334,6.181,1.08c2.166,1.882,1.776,5.302,1.092,8.089c-0.701,2.854-1.517,5.681-2.447,8.469
					c-1.103,3.309-2.85,7.012-6.249,7.796c-1.475,0.34-3.024,0.046-4.527,0.224s-3.144,1.104-3.279,2.612
					c2.287,1.024,4.921,1.251,7.349,0.632c-2.431,4.024-5.197,7.845-8.262,11.41c-2.924,3.402-6.883,6.84-11.307,6.101
					c-1.829-0.306-4.108-1.168-5.239,0.302c-0.959,1.246,0.07,3.203,1.545,3.748c1.475,0.545,3.112,0.129,4.628-0.29
					c-4.626,6.008-9.737,11.642-15.267,16.83c-2.08,1.951-4.328,3.9-7.084,4.635c-2.765,0.737-5.974,0.241-8.264,1.958
					c0.892,0.777,1.784,1.554,2.677,2.331c-0.071,1.785-2.221,2.6-3.973,2.95c-7.349,1.468-14.768,2.592-22.222,3.367
					c-0.421,0.044-0.87,0.081-1.243-0.117c-0.685-0.364-0.772-1.295-0.765-2.071c0.092-9.731,1.284-19.451,3.548-28.916"/>
			</g>
			<g>
				<path style="fill:#FFFFFF;" d="M468.564,210.307c-10.713,8.408-21.432,16.822-31.691,25.785
					c-10.096,8.821-19.565,18.251-28.404,28.332c-5.117,5.836-10.065,11.815-15.014,17.794c-0.303,0.366,0.301,0.793,0.603,0.428
					c8.713-10.526,17.441-21.07,27.054-30.797c9.398-9.511,19.541-18.25,29.914-26.675c5.948-4.831,11.976-9.563,18.005-14.293
					C469.406,210.586,468.938,210.013,468.564,210.307L468.564,210.307z"/>
			</g>
			<g>
				<path style="fill:#FFFFFF;" d="M448.758,212.548c-2.02,5.41-3.347,11.015-3.967,16.756c-0.051,0.474,0.684,0.548,0.736,0.074
					c0.613-5.679,1.926-11.221,3.924-16.572C449.618,212.361,448.925,212.101,448.758,212.548L448.758,212.548z"/>
			</g>
			<g>
				<path style="fill:#FFFFFF;" d="M450.347,237.445c-5.846,1.769-11.869,2.739-17.973,2.918c-0.475,0.014-0.354,0.744,0.115,0.731
					c6.174-0.181,12.246-1.183,18.157-2.972C451.101,237.984,450.797,237.309,450.347,237.445L450.347,237.445z"/>
			</g>
			<g>
				<path style="fill:#FFFFFF;" d="M419.381,234.755c-1.404,6.289-1.806,12.707-1.219,19.123c0.043,0.475,0.774,0.357,0.73-0.115
					c-0.582-6.354-0.165-12.708,1.224-18.934C420.22,234.365,419.483,234.295,419.381,234.755L419.381,234.755z"/>
			</g>
			<g>
				<path style="fill:#FFFFFF;" d="M428.121,262.139c-6.138,2.546-12.711,3.571-19.333,3.016c-0.474-0.04-0.549,0.696-0.074,0.736
					c6.741,0.565,13.457-0.484,19.706-3.076C428.86,262.632,428.56,261.957,428.121,262.139L428.121,262.139z"/>
			</g>
		</g>
		<g>
			<g>
				<path style="fill:#4180A9;" d="M402.37,289.06c3.657-3.682,8.022-6.658,12.785-8.717c0.32,1.833,0.64,3.666,0.96,5.499
					c1.426-4.14,5.073-7.211,9.087-8.96s8.418-2.353,12.758-2.94c0.385,2.013,1.048,3.973,1.963,5.806
					c2.428-0.781,2.323-4.662,4.559-5.89c0.707-0.388,1.544-0.441,2.35-0.472c9.328-0.358,18.721,1.032,27.546,4.077
					c1.684,0.581,3.513,1.373,4.223,3.007c0.944,2.175-0.565,4.585-2.068,6.419c-1.54,1.878-3.155,3.694-4.842,5.441
					c-2.001,2.074-4.623,4.211-7.436,3.585c-1.221-0.272-2.271-1.043-3.455-1.446c-1.184-0.404-2.737-0.297-3.375,0.779
					c1.34,1.578,3.223,2.686,5.253,3.09c-3.246,2.133-6.67,3.996-10.225,5.561c-3.392,1.494-7.568,2.646-10.603,0.518
					c-1.255-0.88-2.646-2.335-4.013-1.642c-1.159,0.587-1.089,2.413-0.184,3.345c0.905,0.932,2.274,1.205,3.553,1.433
					c-5.589,2.83-11.407,5.209-17.378,7.106c-2.246,0.714-4.616,1.365-6.932,0.93c-2.324-0.436-4.539-1.95-6.858-1.486
					c0.388,0.897,0.776,1.795,1.165,2.692c-0.689,1.306-2.582,1.147-4.013,0.783c-6.002-1.524-11.932-3.33-17.765-5.408
					c-0.329-0.117-0.677-0.25-0.885-0.53c-0.381-0.516-0.114-1.24,0.168-1.816c3.536-7.221,7.889-14.042,12.949-20.291"/>
			</g>
			<g>
				<path style="fill:#FFFFFF;" d="M470.995,283.289c-10.982,2.45-21.971,4.902-32.812,7.928
					c-10.67,2.978-21.088,6.633-31.269,10.998c-5.894,2.527-11.714,5.221-17.533,7.914c-0.357,0.165-0.058,0.698,0.297,0.534
					c10.246-4.742,20.509-9.491,31.141-13.317c10.395-3.741,21.07-6.641,31.805-9.225c6.156-1.482,12.335-2.861,18.515-4.239
					C471.524,283.796,471.379,283.203,470.995,283.289L470.995,283.289z"/>
			</g>
			<g>
				<path style="fill:#FFFFFF;" d="M455.433,277.901c-3.434,3.313-6.42,7.018-8.928,11.077c-0.207,0.335,0.315,0.652,0.522,0.317
					c2.481-4.015,5.434-7.679,8.831-10.955C456.14,278.068,455.717,277.628,455.433,277.901L455.433,277.901z"/>
			</g>
			<g>
				<path style="fill:#FFFFFF;" d="M447.745,297.027c-4.988-0.764-9.824-2.188-14.438-4.229c-0.359-0.159-0.529,0.429-0.174,0.586
					c4.667,2.065,9.55,3.482,14.594,4.255C448.115,297.697,448.129,297.086,447.745,297.027L447.745,297.027z"/>
			</g>
			<g>
				<path style="fill:#FFFFFF;" d="M425.62,283.987c-3.287,4.188-5.875,8.829-7.723,13.821c-0.137,0.37,0.45,0.542,0.586,0.174
					c1.83-4.944,4.405-9.532,7.659-13.678C426.385,283.996,425.86,283.681,425.62,283.987L425.62,283.987z"/>
			</g>
			<g>
				<path style="fill:#FFFFFF;" d="M422.377,307.515c-5.483-0.289-10.748-1.867-15.487-4.64c-0.339-0.199-0.657,0.323-0.317,0.522
					c4.824,2.823,10.204,4.435,15.786,4.729C422.753,308.146,422.77,307.535,422.377,307.515L422.377,307.515z"/>
			</g>
		</g>
		<g>
			<g>
				<path style="fill:#FF965F;" d="M130.254,203.625c-1.504-6.098-4.182-11.904-7.846-17.005c-1.473,1.704-2.946,3.408-4.419,5.111
					c1.097-5.185-0.777-10.643-3.856-14.956c-3.079-4.313-7.274-7.682-11.412-10.993c-1.652,1.85-3.56,3.472-5.652,4.805
					c-2.034-2.322,0.49-6.285-1.066-8.951c-0.492-0.843-1.329-1.419-2.146-1.952c-9.46-6.177-20.075-10.58-31.13-12.913
					c-2.11-0.445-4.502-0.761-6.255,0.493c-2.333,1.67-2.267,5.111-1.848,7.95c0.429,2.908,0.976,5.798,1.639,8.662
					c0.787,3.398,2.178,7.248,5.488,8.349c1.437,0.478,3.006,0.33,4.486,0.649c1.48,0.318,3.026,1.395,3.019,2.909
					c-2.373,0.804-5.017,0.782-7.376-0.062c2.041,4.235,4.436,8.299,7.152,12.136c2.591,3.662,6.209,7.458,10.683,7.137
					c1.85-0.132,4.2-0.777,5.187,0.793c0.838,1.331-0.371,3.182-1.891,3.586s-3.11-0.164-4.58-0.724
					c4.04,6.416,8.599,12.507,13.616,18.192c1.887,2.139,3.942,4.29,6.617,5.281c2.684,0.994,5.925,0.801,8.043,2.726
					c-0.961,0.69-1.923,1.379-2.884,2.069c-0.098,1.784,1.967,2.798,3.678,3.311c7.179,2.153,14.458,3.97,21.807,5.443
					c0.415,0.083,0.858,0.163,1.249,0c0.716-0.298,0.89-1.216,0.956-1.99c0.824-9.696,0.551-19.486-0.812-29.121"/>
			</g>
			<g>
				<path style="fill:#FFFFFF;" d="M62.612,154.923c9.875,9.378,19.755,18.763,29.124,28.651
					c9.222,9.732,17.762,20.011,25.613,30.878c4.545,6.291,8.909,12.71,13.273,19.127c0.267,0.393-0.374,0.761-0.641,0.369
					c-7.684-11.299-15.382-22.617-24.036-33.205c-8.462-10.353-17.738-20.007-27.272-29.371
					c-5.467-5.369-11.024-10.647-16.58-15.924C61.747,155.121,62.267,154.595,62.612,154.923L62.612,154.923z"/>
			</g>
			<g>
				<path style="fill:#FFFFFF;" d="M82.119,159.016c1.503,5.576,2.296,11.281,2.373,17.055c0.006,0.477-0.733,0.481-0.739,0.004
					c-0.076-5.711-0.862-11.352-2.348-16.868C81.281,158.749,81.995,158.556,82.119,159.016L82.119,159.016z"/>
			</g>
			<g>
				<path style="fill:#FFFFFF;" d="M78.196,183.654c5.653,2.311,11.559,3.843,17.619,4.596c0.472,0.059,0.283,0.774-0.183,0.716
					c-6.13-0.761-12.081-2.33-17.797-4.667C77.394,184.119,77.761,183.476,78.196,183.654L78.196,183.654z"/>
			</g>
			<g>
				<path style="fill:#FFFFFF;" d="M109.277,183.889c0.805,6.394,0.603,12.82-0.586,19.153c-0.088,0.469-0.804,0.282-0.716-0.183
					c1.177-6.271,1.36-12.636,0.563-18.965C108.478,183.421,109.218,183.422,109.277,183.889L109.277,183.889z"/>
			</g>
			<g>
				<path style="fill:#FFFFFF;" d="M98,210.329c5.871,3.112,12.318,4.751,18.963,4.822c0.476,0.005,0.481,0.745,0.004,0.739
					c-6.765-0.072-13.352-1.748-19.329-4.916C97.217,210.751,97.58,210.106,98,210.329L98,210.329z"/>
			</g>
		</g>
		<g>
			<g>
				<path style="fill:#FF965F;" d="M309.266,184.255c1.448-4.146,3.694-8.011,6.58-11.321c0.913,1.283,1.826,2.566,2.74,3.848
					c-0.422-3.681,1.241-7.357,3.668-10.157c2.427-2.8,5.568-4.869,8.667-6.901c1.029,1.396,2.25,2.651,3.618,3.717
					c1.568-1.483,0.072-4.407,1.331-6.16c0.398-0.555,1.018-0.9,1.622-1.218c6.991-3.678,14.67-6.044,22.518-6.941
					c1.498-0.171,3.184-0.234,4.321,0.755c1.514,1.316,1.242,3.707,0.764,5.655c-0.49,1.996-1.061,3.972-1.711,5.921
					c-0.771,2.314-1.993,4.902-4.369,5.451c-1.031,0.238-2.114,0.032-3.166,0.157c-1.051,0.124-2.198,0.772-2.293,1.826
					c1.599,0.716,3.441,0.874,5.138,0.442c-1.699,2.813-3.634,5.485-5.776,7.977c-2.044,2.378-4.813,4.783-7.906,4.265
					c-1.279-0.214-2.872-0.817-3.663,0.211c-0.671,0.871,0.049,2.239,1.081,2.621c1.031,0.381,2.176,0.09,3.235-0.203
					c-3.234,4.2-6.808,8.14-10.674,11.767c-1.454,1.365-3.026,2.727-4.953,3.24c-1.934,0.515-4.177,0.168-5.778,1.369
					c0.624,0.543,1.248,1.087,1.872,1.63c-0.049,1.248-1.553,1.818-2.778,2.063c-5.138,1.026-10.325,1.813-15.537,2.354
					c-0.294,0.031-0.608,0.057-0.869-0.082c-0.479-0.255-0.54-0.905-0.535-1.448c0.064-6.804,0.898-13.6,2.48-20.217"/>
			</g>
			<g>
				<path style="fill:#FFFFFF;" d="M359.553,154.803c-7.49,5.878-14.985,11.761-22.157,18.028
					c-7.059,6.168-13.68,12.76-19.859,19.809c-3.577,4.08-7.037,8.261-10.497,12.441c-0.212,0.256,0.21,0.555,0.422,0.299
					c6.092-7.36,12.194-14.731,18.915-21.532c6.571-6.65,13.663-12.76,20.915-18.65c4.159-3.378,8.374-6.686,12.588-9.993
					C360.142,154.998,359.815,154.598,359.553,154.803L359.553,154.803z"/>
			</g>
			<g>
				<path style="fill:#FFFFFF;" d="M345.705,156.37c-1.413,3.782-2.34,7.701-2.773,11.715c-0.036,0.331,0.479,0.383,0.514,0.052
					c0.429-3.971,1.346-7.846,2.744-11.587C346.306,156.239,345.822,156.057,345.705,156.37L345.705,156.37z"/>
			</g>
			<g>
				<path style="fill:#FFFFFF;" d="M346.816,173.777c-4.087,1.237-8.298,1.915-12.566,2.04c-0.332,0.01-0.248,0.52,0.08,0.511
					c4.317-0.126,8.562-0.827,12.695-2.078C347.343,174.154,347.13,173.682,346.816,173.777L346.816,173.777z"/>
			</g>
			<g>
				<path style="fill:#FFFFFF;" d="M325.165,171.896c-0.981,4.398-1.263,8.884-0.852,13.37c0.03,0.332,0.541,0.249,0.511-0.08
					c-0.407-4.443-0.116-8.885,0.856-13.238C325.752,171.624,325.237,171.575,325.165,171.896L325.165,171.896z"/>
			</g>
			<g>
				<path style="fill:#FFFFFF;" d="M331.276,191.042c-4.292,1.78-8.887,2.497-13.517,2.109c-0.332-0.028-0.384,0.487-0.052,0.514
					c4.713,0.395,9.409-0.338,13.778-2.15C331.793,191.388,331.583,190.915,331.276,191.042L331.276,191.042z"/>
			</g>
		</g>
		<g>
			<g>
				<path style="fill:#4180A9;" d="M95.177,256.849c-3.294-4.01-7.36-7.383-11.909-9.881c-0.491,1.795-0.982,3.59-1.473,5.385
					c-1.03-4.256-4.372-7.657-8.204-9.775c-3.833-2.118-8.16-3.135-12.425-4.128c-0.573,1.968-1.417,3.857-2.501,5.596
					c-2.343-1.006-1.874-4.86-3.984-6.292c-0.667-0.453-1.496-0.584-2.296-0.691c-9.253-1.234-18.735-0.733-27.807,1.467
					c-1.731,0.42-3.627,1.037-4.487,2.597c-1.144,2.077,0.131,4.618,1.455,6.585c1.356,2.015,2.794,3.974,4.309,5.873
					c1.798,2.253,4.207,4.627,7.066,4.268c1.241-0.156,2.359-0.825,3.576-1.115c1.217-0.29,2.753-0.038,3.287,1.093
					c-1.482,1.445-3.461,2.371-5.52,2.582c3.031,2.429,6.264,4.606,9.656,6.499c3.236,1.806,7.286,3.347,10.507,1.514
					c1.332-0.758,2.854-2.075,4.15-1.257c1.099,0.694,0.857,2.504-0.132,3.347c-0.989,0.843-2.377,0.986-3.672,1.092
					c5.298,3.343,10.866,6.259,16.632,8.709c2.169,0.922,4.467,1.793,6.814,1.578c2.355-0.216,4.703-1.514,6.967-0.834
					c-0.471,0.857-0.942,1.713-1.413,2.57c0.563,1.365,2.463,1.385,3.922,1.157c6.119-0.953,12.193-2.192,18.195-3.713
					c0.339-0.086,0.698-0.185,0.931-0.445c0.428-0.478,0.23-1.224,0.004-1.824c-2.841-7.522-6.533-14.722-10.982-21.419"/>
			</g>
			<g>
				<path style="fill:#FFFFFF;" d="M27.4,244.647c10.703,3.472,21.412,6.948,31.92,10.98c10.342,3.969,20.371,8.588,30.096,13.891
					c5.63,3.07,11.17,6.3,16.71,9.529c0.339,0.198-0.008,0.701-0.346,0.504c-9.754-5.685-19.525-11.379-29.75-16.188
					c-9.997-4.702-20.352-8.594-30.796-12.176c-5.989-2.054-12.012-4.008-18.034-5.962C26.826,245.103,27.025,244.526,27.4,244.647
					L27.4,244.647z"/>
			</g>
			<g>
				<path style="fill:#FFFFFF;" d="M43.4,240.748c3.107,3.621,5.731,7.591,7.846,11.868c0.175,0.353-0.375,0.62-0.55,0.267
					c-2.092-4.23-4.688-8.156-7.761-11.737C42.68,240.847,43.143,240.448,43.4,240.748L43.4,240.748z"/>
			</g>
			<g>
				<path style="fill:#FFFFFF;" d="M49.254,260.512c5.038-0.291,9.986-1.254,14.772-2.852c0.373-0.125,0.487,0.476,0.119,0.599
					c-4.84,1.617-9.836,2.568-14.93,2.863C48.822,261.144,48.866,260.534,49.254,260.512L49.254,260.512z"/>
			</g>
			<g>
				<path style="fill:#FFFFFF;" d="M72.508,249.611c2.879,4.479,5.018,9.342,6.388,14.486c0.102,0.381-0.499,0.497-0.599,0.119
					c-1.357-5.094-3.489-9.904-6.338-14.338C71.746,249.548,72.297,249.284,72.508,249.611L72.508,249.611z"/>
			</g>
			<g>
				<path style="fill:#FFFFFF;" d="M73.523,273.34c5.486,0.228,10.876-0.848,15.854-3.163c0.357-0.166,0.624,0.383,0.267,0.55
					c-5.068,2.357-10.576,3.455-16.161,3.223C73.09,273.933,73.13,273.323,73.523,273.34L73.523,273.34z"/>
			</g>
		</g>
		<g style="opacity:0.51;">
			<path style="fill:#7DB4D9;" d="M199.756,220.333c-5.152-4.823-7.682-12.292-6.524-19.253c0.469-2.819,1.587-5.658,3.771-7.5
				c2.185-1.843,5.6-2.403,7.928-0.746c2.361,1.68,4.977,5.407,7.044,3.377c1.425-1.4,0.088-3.748,0.025-5.745
				c-0.114-3.627,4.565-5.814,8.013-4.684c3.448,1.13,5.774,4.273,7.866,7.237c4.163-2.592,3.557-8.638,4.095-13.513
				c0.897-8.129,6.803-15.493,14.542-18.135c-1.006,3.496-1.668,8.038,1.344,10.078c0.851,0.577,1.924,0.867,2.574,1.665
				c2.514,3.084-4.057,8.518-0.946,10.998c2.365,1.885,5.959-2.112,8.646-0.724c3.27,1.688,0.306,8.367,3.74,9.689
				c2.018,0.777,3.845-1.339,5.682-2.48c3.135-1.948,7.768-0.752,9.627,2.437c1.859,3.189,0.664,7.757-2.483,9.687
				c4.828,0.188,10.049,0.521,13.74,3.639c3.691,3.118,4.27,10.1-0.077,12.21"/>
		</g>
		<g>
			<polygon style="fill:#4180A9;" points="199.107,138.876 200.301,155.622 223.464,154.63 222.722,136.797 			"/>
			<path style="fill:#214B63;" d="M210.025,134.037l-21.47,5.52l23.967,2.184l22.231-4.065l1.74-0.318l-26.058-3.346
				C210.298,133.994,210.159,134.003,210.025,134.037z"/>
			<g>
				<polygon style="fill:#214B63;" points="236.146,163.616 235.141,137.386 235.614,137.36 236.619,163.59 				"/>
			</g>
			<polygon style="fill:#214B63;" points="236.294,162.782 235.523,165.327 236.598,166.058 237.407,165.085 			"/>
			<g>
				<path style="fill:#FFD0BC;" d="M208.42,166.486c0.728-2.022,0.149-4.267-0.591-6.284c-0.739-2.018-2.169-2.664-2.095-4.812
					c0.447-0.266,0.939-0.266,1.455-0.337c0.515-0.071,0.865-0.057,1.529-0.036c0.242,0.007,0.444,0.004,0.444,0.004
					c0.603,0.038,1.246-0.339,1.642-0.716c1.236-1.173,1.877-2.852,2.176-4.53c0.299-1.678,0.292-3.393,0.444-5.09
					c0.046-0.511,0.302-1.182,0.808-1.097c0.201,0.034,0.356,0.19,0.494,0.34c0.37,0.404,0.719,0.826,1.047,1.264
					c0.53,0.707,1.007,1.453,1.424,2.232c0.735,1.37,1.292,2.867,1.352,4.421c0.167,4.296-3.37,7.866-4.145,12.095
					c-0.301,1.643-0.173,3.33-0.043,4.995"/>
			</g>
			<g>
				<path style="fill:#F4C5B5;" d="M165.319,158.808c0.929,4.202,0.434,9.002-2.964,11.644c-0.408,0.317-0.89,0.731-0.787,1.237
					c0.04,0.197,0.167,0.363,0.298,0.516c1.277,1.492,3.172,2.299,5.047,2.887c2.389,0.749,4.89,1.229,7.39,1.094
					s5.007-0.915,6.964-2.477c0.234-0.187,0.468-0.397,0.568-0.679c0.088-0.249,0.061-0.522,0.032-0.785
					c-0.089-0.806-0.178-1.612-0.267-2.418c-0.02-0.185-0.046-0.382-0.168-0.522c-0.126-0.145-0.327-0.195-0.515-0.233
					c-0.917-0.186-1.86-0.262-2.751-0.548c-0.891-0.286-1.126-0.505-1.53-1.35c-0.416-0.87-0.618-3.777-0.452-4.727
					c0.724-4.154,1.477-6.689,2.824-10.685"/>
			</g>
			<g>
				<path style="fill:#FFD0BC;" d="M163.129,137.826c-1.166,1.121-1.586,2.816-1.679,4.431c-0.093,1.615,0.084,3.244-0.13,4.847
					c-0.202,1.51-0.748,2.961-0.91,4.476c-0.188,1.759,0.147,3.53,0.551,5.252c0.471,2.008,1.063,4.044,2.297,5.696
					c0.299,0.401,0.655,0.789,1.125,0.959c0.525,0.189,1.105,0.077,1.648-0.053c4.389-1.051,8.588-3.186,11.663-6.49
					c3.075-3.305,4.935-7.836,4.572-12.335"/>
			</g>
			<g>
				<path style="fill:#214B63;" d="M175.484,152.08c0.261-0.847,1.15-1.453,2.034-1.388c0.884,0.065,1.674,0.796,1.808,1.672
					c0.229,1.495-1.194,2.648-2.057,3.891c-0.398,0.574-0.692,1.22-0.863,1.897c-0.198,0.785-0.207,1.688,0.29,2.328
					c0.849,1.095,2.632,0.79,3.75-0.028c1.551-1.135,2.462-2.948,3.061-4.774c0.599-1.826,0.944-3.735,1.663-5.518
					c0.322-0.798,0.716-1.564,1.048-2.358c0.902-2.156,2.084-4.081,2.008-6.417c-0.066-2.03-1.28-4.511-2.367-6.227
					c-1.087-1.716-2.848-3.06-4.855-3.372c-1.05-0.163-2.13-0.046-3.157,0.225c-0.998,0.263-2.034,0.112-3.065,0.066
					c-2.003-0.088-3.456-1.254-5.287-2.072c-2.993-1.339-6.66-0.025-8.921,2.35c-1.98,2.08-3.139,5.022-2.73,7.865
					c0.409,2.843,2.534,5.46,5.331,6.108c1.469,0.341,3.007,0.152,4.508,0.305c3.156,0.321,6.105,2.258,7.655,5.026"/>
			</g>
			<g>
				<path style="fill:#EA6D30;" d="M176.83,167.997c-0.557,0.259-0.831,0.659-1.419,0.836c-1.249,0.377-2.391,0.544-3.664,0.706
					c-2.404,0.306-5.449-0.04-7.71-0.914c-0.132-0.051-0.273-0.107-0.412-0.078c-0.287,0.06-0.38,0.417-0.414,0.708
					c-1.155,9.699-1.409,19.506-0.757,29.252c0.1,1.488,0.354,3.203,1.632,3.971c0.633,0.381,1.401,0.443,2.138,0.492
					c3.294,0.22,6.676,0.358,9.823-0.64c0.325-0.103,0.659-0.226,0.892-0.474c0.295-0.314,0.376-0.766,0.443-1.192
					c1.168-7.439,2.044-15.036,0.912-22.481c-0.303-1.993-0.75-3.991-0.62-6.003"/>
			</g>
			<g>
				<path style="fill:#214B63;" d="M176.842,167.571c-0.825,1.899-1.601,4.355-2.058,6.375c-2.331,10.306-4.665,20.633-5.943,31.122
					c-0.025,0.201-0.04,0.431,0.097,0.58c0.135,0.147,0.361,0.155,0.56,0.151c6.109-0.111,12.216-0.378,18.312-0.803
					c0.465-0.032,0.989-0.096,1.271-0.467c0.233-0.307,0.223-0.727,0.204-1.111c-0.498-10.244,0.017-20.536,1.533-30.679
					c0.029-0.192,0.052-0.407-0.063-0.563c-0.09-0.122-0.242-0.176-0.385-0.224C185.868,170.446,181.411,168.856,176.842,167.571"/>
			</g>
			<g>
				<path style="fill:#214B63;" d="M164.171,168.325c0.456,4.578,0.911,9.157,1.367,13.735c0.756,7.593,1.516,15.214,3.296,22.634
					c0.068,0.283,0.134,0.595-0.004,0.851c-0.209,0.386-0.74,0.42-1.178,0.405c-4.293-0.153-8.585-0.307-12.878-0.46
					c-0.259-2.869-0.518-5.738-0.777-8.607c-0.627-6.943-1.253-13.886-1.747-20.839c-0.023-0.326-0.278-2.301-0.126-2.59
					c0.084-0.159,0.07-0.233,0.322-0.374c3.702-2.07,7.984-3.203,11.698-4.746"/>
			</g>
			<g>
				<path style="fill:#214B63;" d="M190.755,172.175c1.56,1.317,2.05,3.045,3.268,4.683c1.37,1.841,2.495,3.85,3.616,5.853
					c2.408,4.302,5.413,6.665,7.391,9.543c0.411-9.75,1.262-16.111,2.876-25.735c0.027-0.16,0.061-0.333,0.181-0.442
					c0.143-0.129,0.359-0.125,0.551-0.114c1.617,0.098,3.234,0.195,4.851,0.293c0.446,0.027,0.949,0.084,1.218,0.44
					c0.193,0.256,0.209,0.6,0.217,0.921c0.037,1.484,0.074,2.969,0.11,4.454c0.124,4.998,0.247,10.011-0.226,14.988
					c-0.473,4.977-1.561,9.945-3.752,14.439c-0.61,1.251-1.391,2.542-2.671,3.086c-1.451,0.616-3.115,0.102-4.577-0.487
					c-3.933-1.584-7.037-4.254-10.413-6.818c-1.591-1.208-3.754-1.998-4.725-3.743c-0.847-1.521-1.208-3.264-1.425-4.992
					C186.582,183.243,188.395,176.967,190.755,172.175"/>
			</g>
			<g>
				<path style="fill:#214B63;" d="M152.124,173.453c1.391,1.347,2.12,4.935,2.408,6.849c0.304,2.021,0.345,4.081,0.12,6.113
					c-0.219,1.985-0.689,3.933-1.158,5.875c-1.012,4.195-2.025,8.391-3.037,12.586c-0.044,0.185-0.098,0.383-0.246,0.503
					c-0.143,0.115-0.341,0.128-0.525,0.13c-3.46,0.036-6.727-2.052-10.175-1.77c1.761-5.434,3.521-10.868,5.282-16.302
					c0.704-2.173,1.838-7.008,2.955-9C148.866,176.445,150.083,174.48,152.124,173.453"/>
			</g>
		</g>
		<g>
			<g>
				<path style="fill:#EA6D30;" d="M375.214,209.811c-0.427-0.004-0.854-0.082-1.267-0.236c-0.925-0.346-1.661-1.032-2.071-1.931
					c-0.846-1.855-0.025-4.054,1.832-4.9l5.929-2.703c0.138-0.064,0.3-0.003,0.363,0.136c0.063,0.138,0.002,0.301-0.136,0.363
					l-5.929,2.704c-1.581,0.721-2.281,2.594-1.56,4.174c0.349,0.766,0.975,1.35,1.764,1.645c0.79,0.294,1.646,0.264,2.411-0.085
					l9.924-4.524c1.203-0.549,1.735-1.974,1.187-3.179c-0.549-1.202-1.975-1.736-3.179-1.187l-8.767,3.997
					c-0.812,0.37-1.172,1.333-0.801,2.146c0.371,0.813,1.335,1.172,2.146,0.801l8.26-3.766c0.138-0.064,0.3-0.003,0.363,0.136
					c0.063,0.138,0.002,0.301-0.136,0.363l-8.26,3.766c-1.089,0.495-2.377,0.015-2.872-1.072c-0.495-1.089-0.014-2.377,1.073-2.873
					l8.767-3.997c1.476-0.672,3.23-0.02,3.905,1.459c0.674,1.479,0.02,3.231-1.459,3.905l-9.924,4.524
					C376.278,209.704,375.746,209.815,375.214,209.811z"/>
			</g>
		</g>
		<g>
			<g>
				<path style="fill:#EA6D30;" d="M93.767,242.349c0.18,0.388,0.292,0.807,0.329,1.246c0.083,0.984-0.222,1.942-0.859,2.698
					c-1.315,1.558-3.654,1.757-5.213,0.441l-4.98-4.202c-0.116-0.097-0.131-0.27-0.033-0.386c0.098-0.116,0.271-0.13,0.386-0.033
					l4.98,4.202c1.328,1.121,3.32,0.952,4.44-0.376c0.543-0.643,0.803-1.459,0.732-2.298c-0.072-0.84-0.466-1.6-1.108-2.142
					l-8.335-7.034c-1.01-0.852-2.527-0.724-3.381,0.287c-0.852,1.011-0.724,2.528,0.287,3.381l7.364,6.214
					c0.682,0.576,1.706,0.489,2.282-0.194c0.576-0.684,0.488-1.708-0.194-2.282l-6.938-5.854c-0.116-0.097-0.131-0.27-0.033-0.386
					c0.098-0.116,0.271-0.13,0.386-0.033l6.938,5.854c0.914,0.772,1.031,2.142,0.26,3.055c-0.772,0.914-2.142,1.03-3.056,0.259
					l-7.364-6.214c-1.239-1.046-1.4-2.911-0.352-4.154c1.049-1.243,2.912-1.4,4.154-0.352l8.335,7.034
					C93.215,241.433,93.543,241.865,93.767,242.349z"/>
			</g>
		</g>
		<g>
			<g>
				<g>
					<defs>
						<path id="XMLID_31_" d="M348.846,332.121c0,0-22.861-112.967-22.976-114.194l-109.257,3.459l-0.241,17.473l0.055-17.474
							l-109.183-5.308c-0.136,1.225-24.905,113.789-24.905,113.789l121.55,0.374c0,0,2.499,5.275,11.665,5.353
							c9.167,0.078,11.754-5.154,11.754-5.154L348.846,332.121z"/>
					</defs>
					<use xlink:href="#XMLID_31_"  style="overflow:visible;fill:#214B63;"/>
					<clipPath id="XMLID_00000154414203318520210970000017790683710017609122_">
						<use xlink:href="#XMLID_31_"  style="overflow:visible;"/>
					</clipPath>
					
						<rect x="204.056" y="203.844" transform="matrix(1 0.0085 -0.0085 1 2.3337 -1.8166)" style="opacity:0.5;clip-path:url(#XMLID_00000154414203318520210970000017790683710017609122_);fill:#214B63;" width="23.764" height="142.302"/>
				</g>
				<path style="fill:#7DB4D9;" d="M215.597,319.426c-6.447-2.996-64.91-28.784-124.035-7.747c0,0,0.785,0.559,1.555,2.185
					c0.259,0.548,0.515,1.214,0.74,2.027c0.226,0.817,0.417,1.782,0.547,2.909c0.065,0.56,0.117,1.15,0.147,1.794
					c0.045,0.987,0.045,2.073-0.015,3.272c0,0,85.221,0.72,110.429,2.363c0,0,0.386-0.417,1.103-0.99
					c0.746-0.597,1.853-1.365,3.274-2.021c0.845-0.389,1.799-0.738,2.853-0.986c0.168-0.039,0.346-0.068,0.519-0.102
					c0.899-0.177,1.857-0.288,2.883-0.279c1.206,0.01,2.35,0.173,3.417,0.43c0.138,0.033,0.269,0.073,0.404,0.109
					c0.973,0.261,1.879,0.592,2.696,0.96c1.511,0.681,2.725,1.464,3.553,2.07c0.79,0.578,1.233,0.995,1.233,0.995
					c25.231-1.215,109.852-0.499,109.852-0.499c-0.04-1.189-0.021-2.264,0.039-3.242c0.04-0.643,0.101-1.235,0.174-1.794
					c0.152-1.159,0.366-2.148,0.615-2.978c0.24-0.803,0.508-1.456,0.776-1.994c0.792-1.587,1.576-2.126,1.576-2.126
					C281.169,291.747,222.113,316.54,215.597,319.426z"/>
				<g>
					<defs>
						<path id="XMLID_29_" d="M319.499,207.634c-46.01-24.66-98.939,9.305-102.965,11.969c-3.98-2.732-56.326-37.588-102.747-13.71
							c-1.83,10.899-24.083,107.143-24.083,107.143s67.977-9.626,125.889,6.668c60.388-15.293,126.171-4.535,126.171-4.535
							S321.143,218.562,319.499,207.634z"/>
					</defs>
					<use xlink:href="#XMLID_29_"  style="overflow:visible;fill:#EAF4EF;"/>
					<clipPath id="XMLID_00000124868084746810389290000005291486498335629190_">
						<use xlink:href="#XMLID_29_"  style="overflow:visible;"/>
					</clipPath>
					
						<polygon style="opacity:0.3;clip-path:url(#XMLID_00000124868084746810389290000005291486498335629190_);fill:#EAF4EF;" points="
						214.385,202.695 211.313,338.675 219.962,335.63 216.767,192.135 					"/>
				</g>
			</g>
			<line style="fill:none;stroke:#7DB4D9;stroke-miterlimit:10;" x1="216.534" y1="219.604" x2="215.594" y2="319.704"/>
			<g>
				<g>
					<path style="fill:#7DB4D9;" d="M231.276,224.688c8.437-4.602,17.87-7.797,27.151-10.147c19.076-4.831,39.47-5.266,57.859,2.446
						c0.415,0.174,0.596-0.503,0.186-0.675c-18.21-7.637-38.414-7.32-57.348-2.667c-9.638,2.369-19.451,5.665-28.201,10.438
						C230.528,224.299,230.881,224.904,231.276,224.688L231.276,224.688z"/>
				</g>
				<g>
					<path style="fill:#7DB4D9;" d="M231.276,233.692c8.437-4.602,17.87-7.797,27.151-10.147c19.076-4.831,39.47-5.266,57.859,2.446
						c0.415,0.174,0.596-0.503,0.186-0.675c-18.21-7.637-38.414-7.32-57.348-2.667c-9.638,2.369-19.451,5.665-28.201,10.438
						C230.528,233.303,230.881,233.908,231.276,233.692L231.276,233.692z"/>
				</g>
				<g>
					<path style="fill:#7DB4D9;" d="M231.276,242.696c8.437-4.602,17.87-7.797,27.151-10.147c19.076-4.831,39.47-5.266,57.859,2.446
						c0.415,0.174,0.596-0.503,0.186-0.675c-18.21-7.637-38.414-7.32-57.348-2.667c-9.638,2.369-19.451,5.665-28.201,10.438
						C230.528,242.307,230.881,242.912,231.276,242.696L231.276,242.696z"/>
				</g>
				<g>
					<path style="fill:#7DB4D9;" d="M231.276,251.7c8.437-4.602,17.87-7.797,27.151-10.147c19.076-4.831,39.47-5.266,57.859,2.446
						c0.415,0.174,0.596-0.503,0.186-0.675c-18.21-7.637-38.414-7.32-57.348-2.667c-9.638,2.369-19.451,5.665-28.201,10.438
						C230.528,251.311,230.881,251.916,231.276,251.7L231.276,251.7z"/>
				</g>
				<g>
					<path style="fill:#7DB4D9;" d="M231.276,260.704c8.437-4.602,17.87-7.797,27.151-10.147c19.076-4.831,39.47-5.266,57.859,2.446
						c0.415,0.174,0.596-0.503,0.186-0.675c-18.21-7.637-38.414-7.32-57.348-2.667c-9.638,2.369-19.451,5.665-28.201,10.438
						C230.528,260.315,230.881,260.92,231.276,260.704L231.276,260.704z"/>
				</g>
				<g>
					<path style="fill:#7DB4D9;" d="M231.276,269.708c8.437-4.602,17.87-7.797,27.151-10.147c19.076-4.831,39.47-5.266,57.859,2.446
						c0.415,0.174,0.596-0.503,0.186-0.675c-18.21-7.637-38.414-7.32-57.348-2.667c-9.638,2.369-19.451,5.665-28.201,10.438
						C230.528,269.32,230.881,269.924,231.276,269.708L231.276,269.708z"/>
				</g>
				<g>
					<path style="fill:#7DB4D9;" d="M231.276,278.712c8.437-4.603,17.87-7.797,27.151-10.147c19.076-4.831,39.47-5.266,57.859,2.446
						c0.415,0.174,0.596-0.503,0.186-0.675c-18.21-7.637-38.414-7.32-57.348-2.667c-9.638,2.369-19.451,5.665-28.201,10.438
						C230.528,278.324,230.881,278.928,231.276,278.712L231.276,278.712z"/>
				</g>
				<g>
					<path style="fill:#7DB4D9;" d="M231.276,287.716c8.437-4.602,17.87-7.797,27.151-10.147c19.076-4.831,39.47-5.266,57.859,2.446
						c0.415,0.174,0.596-0.503,0.186-0.675c-18.21-7.637-38.414-7.32-57.348-2.667c-9.638,2.369-19.451,5.665-28.201,10.438
						C230.528,287.328,230.881,287.932,231.276,287.716L231.276,287.716z"/>
				</g>
				<g>
					<path style="fill:#7DB4D9;" d="M231.276,296.72c8.437-4.603,17.87-7.797,27.151-10.147c19.076-4.831,39.47-5.266,57.859,2.446
						c0.415,0.174,0.596-0.503,0.186-0.675c-18.21-7.637-38.414-7.32-57.348-2.667c-9.638,2.369-19.451,5.665-28.201,10.438
						C230.528,296.332,230.881,296.936,231.276,296.72L231.276,296.72z"/>
				</g>
				<g>
					<path style="fill:#7DB4D9;" d="M231.276,305.724c8.437-4.603,17.87-7.797,27.151-10.147c19.076-4.831,39.47-5.266,57.859,2.446
						c0.415,0.174,0.596-0.503,0.186-0.675c-18.21-7.637-38.414-7.32-57.348-2.667c-9.638,2.369-19.451,5.665-28.201,10.438
						C230.528,305.336,230.881,305.94,231.276,305.724L231.276,305.724z"/>
				</g>
			</g>
			<g>
				<g>
					<path style="fill:#7DB4D9;" d="M200.976,224.688c-8.437-4.602-17.87-7.797-27.151-10.147
						c-19.076-4.831-39.47-5.266-57.859,2.446c-0.415,0.174-0.596-0.503-0.186-0.675c18.21-7.637,38.414-7.32,57.348-2.667
						c9.638,2.369,19.451,5.665,28.201,10.438C201.725,224.299,201.372,224.904,200.976,224.688L200.976,224.688z"/>
				</g>
				<g>
					<path style="fill:#7DB4D9;" d="M200.976,233.692c-8.437-4.602-17.87-7.797-27.151-10.147
						c-19.076-4.831-39.47-5.266-57.859,2.446c-0.415,0.174-0.596-0.503-0.186-0.675c18.21-7.637,38.414-7.32,57.348-2.667
						c9.638,2.369,19.451,5.665,28.201,10.438C201.725,233.303,201.372,233.908,200.976,233.692L200.976,233.692z"/>
				</g>
				<g>
					<path style="fill:#7DB4D9;" d="M200.976,242.696c-8.437-4.602-17.87-7.797-27.151-10.147
						c-19.076-4.831-39.47-5.266-57.859,2.446c-0.415,0.174-0.596-0.503-0.186-0.675c18.21-7.637,38.414-7.32,57.348-2.667
						c9.638,2.369,19.451,5.665,28.201,10.438C201.725,242.307,201.372,242.912,200.976,242.696L200.976,242.696z"/>
				</g>
				<g>
					<path style="fill:#7DB4D9;" d="M200.976,251.7c-8.437-4.602-17.87-7.797-27.151-10.147c-19.076-4.831-39.47-5.266-57.859,2.446
						c-0.415,0.174-0.596-0.503-0.186-0.675c18.21-7.637,38.414-7.32,57.348-2.667c9.638,2.369,19.451,5.665,28.201,10.438
						C201.725,251.311,201.372,251.916,200.976,251.7L200.976,251.7z"/>
				</g>
				<g>
					<path style="fill:#7DB4D9;" d="M200.976,260.704c-8.437-4.602-17.87-7.797-27.151-10.147
						c-19.076-4.831-39.47-5.266-57.859,2.446c-0.415,0.174-0.596-0.503-0.186-0.675c18.21-7.637,38.414-7.32,57.348-2.667
						c9.638,2.369,19.451,5.665,28.201,10.438C201.725,260.315,201.372,260.92,200.976,260.704L200.976,260.704z"/>
				</g>
				<g>
					<path style="fill:#7DB4D9;" d="M200.976,269.708c-8.437-4.602-17.87-7.797-27.151-10.147
						c-19.076-4.831-39.47-5.266-57.859,2.446c-0.415,0.174-0.596-0.503-0.186-0.675c18.21-7.637,38.414-7.32,57.348-2.667
						c9.638,2.369,19.451,5.665,28.201,10.438C201.725,269.32,201.372,269.924,200.976,269.708L200.976,269.708z"/>
				</g>
				<g>
					<path style="fill:#7DB4D9;" d="M200.976,278.712c-8.437-4.603-17.87-7.797-27.151-10.147
						c-19.076-4.831-39.47-5.266-57.859,2.446c-0.415,0.174-0.596-0.503-0.186-0.675c18.21-7.637,38.414-7.32,57.348-2.667
						c9.638,2.369,19.451,5.665,28.201,10.438C201.725,278.324,201.372,278.928,200.976,278.712L200.976,278.712z"/>
				</g>
				<g>
					<path style="fill:#7DB4D9;" d="M200.976,287.716c-8.437-4.602-17.87-7.797-27.151-10.147
						c-19.076-4.831-39.47-5.266-57.859,2.446c-0.415,0.174-0.596-0.503-0.186-0.675c18.21-7.637,38.414-7.32,57.348-2.667
						c9.638,2.369,19.451,5.665,28.201,10.438C201.725,287.328,201.372,287.932,200.976,287.716L200.976,287.716z"/>
				</g>
				<g>
					<path style="fill:#7DB4D9;" d="M200.976,296.72c-8.437-4.603-17.87-7.797-27.151-10.147
						c-19.076-4.831-39.47-5.266-57.859,2.446c-0.415,0.174-0.596-0.503-0.186-0.675c18.21-7.637,38.414-7.32,57.348-2.667
						c9.638,2.369,19.451,5.665,28.201,10.438C201.725,296.332,201.372,296.936,200.976,296.72L200.976,296.72z"/>
				</g>
				<g>
					<path style="fill:#7DB4D9;" d="M200.976,305.724c-8.437-4.603-17.87-7.797-27.151-10.147
						c-19.076-4.831-39.47-5.266-57.859,2.446c-0.415,0.174-0.596-0.503-0.186-0.675c18.21-7.637,38.414-7.32,57.348-2.667
						c9.638,2.369,19.451,5.665,28.201,10.438C201.725,305.336,201.372,305.94,200.976,305.724L200.976,305.724z"/>
				</g>
			</g>
		</g>
		<g>
			<g>
				<path style="fill:#4180A9;" d="M117.799,295.048c0.682,4.428,1.366,8.861,1.699,13.329c0.692,9.271-0.127,18.583-0.074,27.879
					c0.039,6.946,0.565,13.879,1.18,20.798c0.022,0.251,0.05,0.517,0.203,0.718c0.235,0.308,0.672,0.356,1.059,0.378
					c1.36,0.078,2.72,0.156,4.081,0.234c0.872-6.79,1.193-13.637,1.75-20.46c1.185-14.515,3.439-28.943,6.738-43.128"/>
			</g>
			<g>
				<path style="fill:#4180A9;" d="M133.19,294.656c2.879,14.674,1.114,29.866,2.794,44.725c0.24,2.124,0.55,4.239,0.818,6.359
					c0.436,3.449,0.76,6.911,0.972,10.381c0.013,0.221,0.035,0.462,0.187,0.623c0.189,0.2,0.502,0.2,0.777,0.185
					c1.125-0.06,2.249-0.119,3.374-0.179c0.54-7.227,1.08-14.453,1.62-21.68c0.659-8.818,1.319-17.651,2.758-26.376
					c0.846-5.128,1.961-10.233,2.174-15.426"/>
			</g>
			<g>
				<path style="fill:#EA6D30;" d="M119.587,246.545c2.494,7.938,0.505,16.509-1.492,24.586c-2.062,8.339-4.124,16.678-6.186,25.018
					c-0.048,0.195-0.089,0.427,0.045,0.577c0.1,0.112,0.262,0.137,0.411,0.155c13.466,1.631,27.119,1.706,40.602,0.224
					c0.256-0.028,0.521-0.06,0.738-0.199c0.588-0.375,0.496-1.246,0.337-1.925c-3.688-15.685-5.801-31.741-6.297-47.846"/>
			</g>
			<g>
				<path style="fill:#F4C5B5;" d="M138.753,221.102c-0.272,1.735-0.39,3.526,0.019,5.234c0.409,1.708,1.405,3.335,2.937,4.193
					c-0.45,0.68-1.142,1.162-1.857,1.554c-3.655,2.005-8.359,1.94-11.958-0.164c0.865-0.499,1.47-1.375,1.792-2.321
					c0.322-0.946,0.384-1.961,0.355-2.959c-0.072-2.48-0.694-4.943-1.809-7.16"/>
			</g>
			<g>
				<path style="fill:#FFD0BC;" d="M126.568,209.837c-0.227,2.414,0.268,4.836,0.878,7.183c0.361,1.391,0.775,2.796,1.571,3.993
					c0.543,0.815,1.247,1.509,1.959,2.182c0.92,0.869,1.958,1.76,3.218,1.869c1.743,0.152,3.223-1.223,4.302-2.6
					c1.713-2.183,3.082-4.66,3.826-7.333c0.744-2.673,0.844-5.55,0.095-8.222c-0.34-1.212-0.873-2.407-1.784-3.275
					c-0.911-0.868-2.255-1.355-3.463-1.002"/>
			</g>
			<g>
				<path style="fill:#214B63;" d="M137.305,205.883c-0.361,2.964,2.454,5.386,2.952,8.331c0.375,2.218-0.603,4.406-1.298,6.545
					c-0.66,2.032-1.079,4.202-0.707,6.306c0.372,2.104,1.651,4.135,3.616,4.973c1.883,0.803,4.234,0.345,5.677-1.107
					c2.084-2.097,1.987-5.549,1.038-8.349c-0.949-2.8-2.593-5.36-3.218-8.25c-0.41-1.898-0.363-3.865-0.639-5.787
					c-0.327-2.286-1.145-4.553-2.67-6.287c-1.525-1.734-3.823-2.868-6.123-2.657c-0.477,0.044-0.952,0.143-1.43,0.118
					c-0.586-0.031-1.144-0.247-1.713-0.393c-2.863-0.737-6.02,0.38-8.102,2.479c-2.082,2.099-3.157,5.055-3.368,8.004
					c-0.117,1.638,0.012,3.302-0.333,4.907c-0.739,3.431-3.498,6.047-4.898,9.265c-1.076,2.476-1.305,5.349-0.434,7.905
					c0.871,2.555,2.883,4.741,5.431,5.634c2.548,0.893,5.583,0.393,7.586-1.417c1.69-1.527,2.546-3.819,2.711-6.09
					c0.165-2.271-0.301-4.542-0.91-6.736c-0.529-1.905-1.167-3.943-0.518-5.811c0.63-1.814,2.317-3.006,3.578-4.453
					c1.815-2.083,2.778-4.754,3.702-7.357"/>
			</g>
			<g>
				<path style="fill:#FFD0BC;" d="M150.049,255.652c2.072-3.747,4.614-7.233,7.548-10.351c1.081-1.149,2.236-2.277,2.926-3.696
					c0.556-1.145,0.779-2.418,1.177-3.627c0.655-1.99,1.844-3.863,3.602-5.002c1.758-1.139,4.129-1.434,5.973-0.441
					c1.33,0.717,2.258,2.161,2.378,3.64c0.055,0.676-0.718,1.106-1.244,0.678c-0.743-0.604-1.62-1.044-2.55-1.272
					c-0.337-0.082-0.701-0.136-1.023-0.009c-0.624,0.245-0.822,1.033-0.805,1.704c0.017,0.67,0.155,1.377-0.128,1.985
					c-0.444,0.953-1.589,1.731-2.436,2.354c-1.192,0.878-1.644,1.922-2.019,3.354c-1.639,6.247-4.82,12.085-9.182,16.848
					c-1.002,1.094-2.096,2.155-3.548,2.61c-0.751,0.235-1.57,0.227-2.324,0.002c-2.06-0.612,0.498-1.93-1.075-2.245"/>
			</g>
			<g>
				<path style="fill:#222221;" d="M164.931,225.029c-0.619,0.639-0.912,1.483-0.719,2.368c0.301,1.375,1.957,1.822,1.472,3.426
					c-0.15,0.496,0.624,0.715,0.774,0.22c0.238-0.789,0.176-1.595-0.312-2.28c-0.266-0.375-0.689-0.619-0.937-1.003
					c-0.447-0.693-0.263-1.59,0.286-2.157C165.855,225.231,165.292,224.656,164.931,225.029L164.931,225.029z"/>
			</g>
			<g>
				<path style="fill:#222221;" d="M134.53,262.263c-0.167,11.967-0.335,23.934-0.502,35.901c-0.003,0.18,0.277,0.183,0.28,0.002
					c0.167-11.967,0.335-23.934,0.502-35.901C134.812,262.085,134.532,262.083,134.53,262.263L134.53,262.263z"/>
			</g>
			<g>
				<path style="fill:#EA6D30;" d="M148.629,254.277c0.264,0.427,0.893,0.491,1.345,0.274c0.452-0.217,0.768-0.636,1.066-1.039
					c2.833-3.839,5.667-7.678,8.5-11.517c0.221-0.3,0.475-0.621,0.839-0.698c0.395-0.084,0.781,0.147,1.12,0.367
					c0.652,0.425,1.304,0.85,1.956,1.275c0.213,0.139,0.439,0.294,0.526,0.532c0.087,0.238,0.014,0.502-0.06,0.744
					c-1.94,6.326-4.726,12.392-8.261,17.985c-0.744,1.178-1.547,2.361-2.679,3.172c-1.133,0.811-2.673,1.188-3.943,0.615
					c-1.687-0.762-2.501-2.952-4.293-3.414"/>
			</g>
			<g>
				<path style="fill:#EAF4EF;" d="M157.842,228.494c0,0-10.204-0.73-19.669,3.928l3.939,0.033L157.842,228.494z"/>
				<path style="fill:#EAF4EF;" d="M118.088,228.157c0,0,10.215-0.558,19.6,4.261l-3.939-0.033L118.088,228.157z"/>
				<path style="fill:#214B63;" d="M134.233,232.389c0,0,3.52,1.428,7.358,0.062l-0.253,29.869c0,0-3.331,2.4-7.358-0.062
					L134.233,232.389z"/>
				<path style="fill:#2F8E63;" d="M141.591,232.451l-7.358-0.062C134.233,232.389,137.753,233.817,141.591,232.451z"/>
				<polygon style="fill:#7DB4D9;" points="117.35,227.832 117.118,255.2 133.98,262.258 134.233,232.389 				"/>
				<polygon style="fill:#7DB4D9;" points="158.549,228.18 158.317,255.548 141.338,262.32 141.591,232.451 				"/>
			</g>
			<g>
				<path style="fill:#FFD0BC;" d="M129.442,255.017c0.754,0.041,1.421-0.526,1.796-1.181c0.375-0.655,0.54-1.406,0.831-2.103
					c0.48-1.149,1.292-2.123,2.093-3.078c0.729-0.869,1.457-1.739,2.186-2.608c0.143,0.908-0.043,1.865-0.516,2.653
					c-0.188,0.314-0.425,0.612-0.5,0.97c-0.075,0.358,0.087,0.804,0.444,0.883c0.352,0.078,0.664-0.218,0.909-0.482
					c1.626-1.753,3.557-3.221,5.681-4.32c-0.244,1.2-0.541,2.389-0.888,3.563c0.14,0.009,0.28,0.018,0.42,0.027
					c0.068,1.844-0.978,3.588-2.368,4.802s-3.101,1.986-4.784,2.741c-1.42,0.637-2.84,1.274-4.26,1.911"/>
			</g>
			<g>
				<path style="fill:#FFFFFF;" d="M160.404,242.739c-0.697,0.152-0.67,1.136-0.253,1.396c0.421,0.262,1.066-0.024,1.154-0.512
					C161.393,243.135,160.89,242.641,160.404,242.739"/>
			</g>
			<g>
				<path style="fill:#EA6D30;" d="M130.809,255.417c-0.065-0.218-0.136-0.447-0.287-0.593c-0.255-0.247-0.629-0.166-0.949-0.072
					c-4.267,1.253-8.534,2.506-12.802,3.759c0.572-0.067,1.105-1.166,1.725-2.733l-1.379-0.577l0.171-20.193
					c-4.072,7.891-5.696,17.263-7.147,26.357c-0.138,0.865-0.275,1.771-0.061,2.613c0.311,1.229,1.33,2.056,2.386,2.316
					c1.055,0.26,2.15,0.048,3.208-0.209c5.676-1.378,11.128-4.065,15.968-7.867C131.365,257.283,131.087,256.35,130.809,255.417z"/>
			</g>
			<g>
				<path style="fill:#FFFFFF;" d="M127.507,255.645c-0.697,0.152-0.67,1.136-0.253,1.396c0.421,0.262,1.065-0.024,1.154-0.512
					C128.496,256.042,127.992,255.548,127.507,255.645"/>
			</g>
			<g>
				<path style="fill:#FFFFFF;" d="M134.371,263.742c-0.697,0.152-0.67,1.136-0.253,1.396c0.421,0.262,1.065-0.024,1.154-0.512
					C135.36,264.138,134.856,263.644,134.371,263.742"/>
			</g>
			<g>
				<path style="fill:#FFFFFF;" d="M134.291,273.16c-0.697,0.152-0.67,1.136-0.253,1.396c0.421,0.262,1.066-0.024,1.154-0.512
					C135.28,273.556,134.777,273.062,134.291,273.16"/>
			</g>
			<g>
				<path style="fill:#FFFFFF;" d="M134.211,282.578c-0.697,0.152-0.67,1.136-0.253,1.396c0.421,0.262,1.066-0.024,1.154-0.512
					C135.201,282.974,134.697,282.48,134.211,282.578"/>
			</g>
			<g>
				<path style="fill:#FFFFFF;" d="M134.132,291.996c-0.697,0.152-0.67,1.136-0.253,1.396c0.421,0.262,1.066-0.024,1.154-0.512
					C135.121,292.392,134.617,291.898,134.132,291.996"/>
			</g>
			<path style="fill:#222221;" d="M171.228,242.576l0.006-0.036l-0.007,0.002c0.013-0.096,0.016-0.196-0.01-0.307
				c-1.376-5.813-2.942-11.574-4.7-17.283c-0.303-0.986-1.86-0.579-1.554,0.414c1.757,5.709,3.324,11.471,4.7,17.283
				c0.028,0.118,0.077,0.212,0.136,0.293l-0.004,0.001l0.009,0.01c0.005,0.007,0.011,0.012,0.016,0.018l1.136,1.304l0.271-1.686
				C171.227,242.585,171.227,242.581,171.228,242.576z"/>
			<path style="fill:#FFD0BC;" d="M166.929,240.478c0,0,1.958-0.985,3.379-2.914c1.422-1.93-1.446-0.921-1.674-0.458
				c-0.228,0.463-2.323,0.72-2.323,0.72"/>
		</g>
		<g>
			<g>
				<path style="fill:#FF965F;" d="M131.589,330.348c0.133-2.265,0.231-5.489,1.579-7.466c1.74-2.552,6.428-2.584,9.069-2.706
					c3.846-0.177,7.03,0.176,8.888,4.26c0.888,1.95,1.068,4.497,1.416,6.591c0.289,1.738,2.939,1.025,2.651-0.707
					c-0.597-3.589-1.006-8.189-4.003-10.716c-2.883-2.432-6.814-2.356-10.349-2.059c-2.983,0.251-6.84,0.418-9.095,2.708
					c-2.436,2.474-2.708,6.822-2.899,10.071C128.743,332.088,131.486,332.106,131.589,330.348L131.589,330.348z"/>
			</g>
			<path style="fill-rule:evenodd;clip-rule:evenodd;fill:#7DB4D9;" d="M109.974,346.685l62.995,0.533l-0.187,22.059
				c-0.03,3.579-2.985,6.486-6.563,6.456l-49.977-0.423c-3.579-0.03-6.486-2.984-6.455-6.566L109.974,346.685z"/>
			<path style="fill-rule:evenodd;clip-rule:evenodd;fill:#4180A9;" d="M174.098,330.456l-0.189,22.275
				c-0.023,2.716-2.264,4.919-4.979,4.896l-54.901-0.465c-2.781-0.023-5.037-2.318-5.014-5.099l0.188-22.157
				c0.006-0.748,0.618-1.35,1.366-1.343l62.186,0.526C173.503,329.096,174.105,329.708,174.098,330.456z"/>
			<g>
				<path style="fill-rule:evenodd;clip-rule:evenodd;fill:#FF965F;" d="M117.611,328.624l5.865,0.05l-0.325,38.35
					c-0.01,1.228-1.338,2.22-2.952,2.206l0,0c-1.612-0.014-2.924-1.028-2.914-2.256L117.611,328.624z"/>
				<path style="fill-rule:evenodd;clip-rule:evenodd;fill:#214B63;" d="M120.342,352.421c0.405,0.003,0.738-0.242,0.74-0.552
					c0.003-0.307-0.326-0.56-0.731-0.563c-0.403-0.003-0.734,0.244-0.737,0.551C119.612,352.166,119.938,352.418,120.342,352.421z"
					/>
				<path style="fill-rule:evenodd;clip-rule:evenodd;fill:#214B63;" d="M120.369,349.215c0.405,0.003,0.738-0.245,0.74-0.553
					c0.003-0.306-0.326-0.559-0.731-0.562c-0.403-0.003-0.734,0.244-0.737,0.55C119.639,348.957,119.966,349.211,120.369,349.215z"
					/>
				<path style="fill-rule:evenodd;clip-rule:evenodd;fill:#214B63;" d="M120.288,358.836c0.405,0.004,0.738-0.244,0.74-0.552
					c0.003-0.307-0.326-0.562-0.731-0.566c-0.403-0.003-0.734,0.246-0.737,0.553C119.557,358.579,119.884,358.833,120.288,358.836z"
					/>
				<path style="fill-rule:evenodd;clip-rule:evenodd;fill:#214B63;" d="M120.315,355.628c0.405,0.003,0.738-0.243,0.74-0.552
					c0.003-0.307-0.326-0.561-0.731-0.565c-0.403-0.003-0.734,0.246-0.737,0.553C119.585,355.372,119.911,355.625,120.315,355.628z"
					/>
				<path style="fill-rule:evenodd;clip-rule:evenodd;fill:#EA6D30;" d="M117.431,345.059l5.947,0.05
					c0.309,0.003,0.559,0.198,0.557,0.432l-0.04,4.729c-0.002,0.236-0.257,0.427-0.564,0.424l-5.947-0.05
					c-0.309-0.003-0.56-0.197-0.558-0.434l0.04-4.729C116.868,345.247,117.122,345.056,117.431,345.059L117.431,345.059z
					 M117.756,345.739l-0.036,4.23l5.287,0.045l0.036-4.23L117.756,345.739z"/>
				<path style="fill-rule:evenodd;clip-rule:evenodd;fill:#EA6D30;" d="M120.833,346.994c-0.124,0.072-0.276,0.113-0.446,0.111
					c-0.166-0.001-0.32-0.045-0.443-0.119l0.01-1.209c0.002-0.183,0.203-0.333,0.447-0.331h0.001
					c0.244,0.002,0.442,0.155,0.441,0.339L120.833,346.994z"/>
			</g>
			<g>
				<path style="fill-rule:evenodd;clip-rule:evenodd;fill:#FF965F;" d="M159.769,328.98l5.865,0.05l-0.324,38.35
					c-0.01,1.228-1.338,2.22-2.952,2.206l0,0c-1.613-0.014-2.924-1.028-2.913-2.256L159.769,328.98z"/>
				<path style="fill-rule:evenodd;clip-rule:evenodd;fill:#214B63;" d="M162.501,352.778c0.405,0.003,0.738-0.242,0.74-0.552
					c0.003-0.307-0.326-0.56-0.731-0.563c-0.403-0.003-0.734,0.244-0.737,0.551C161.77,352.523,162.097,352.774,162.501,352.778z"/>
				<path style="fill-rule:evenodd;clip-rule:evenodd;fill:#214B63;" d="M162.528,349.572c0.405,0.003,0.738-0.245,0.74-0.553
					c0.003-0.306-0.326-0.559-0.731-0.562c-0.403-0.003-0.734,0.244-0.737,0.55C161.798,349.314,162.124,349.568,162.528,349.572z"
					/>
				<path style="fill-rule:evenodd;clip-rule:evenodd;fill:#214B63;" d="M162.446,359.193c0.405,0.004,0.738-0.244,0.74-0.551
					c0.003-0.307-0.326-0.562-0.731-0.566c-0.403-0.003-0.734,0.246-0.737,0.553C161.716,358.936,162.043,359.189,162.446,359.193z"
					/>
				<path style="fill-rule:evenodd;clip-rule:evenodd;fill:#214B63;" d="M162.473,355.985c0.405,0.003,0.738-0.243,0.74-0.552
					c0.003-0.307-0.326-0.561-0.731-0.565c-0.403-0.004-0.734,0.246-0.737,0.552C161.743,355.729,162.07,355.981,162.473,355.985z"
					/>
				<path style="fill-rule:evenodd;clip-rule:evenodd;fill:#EA6D30;" d="M159.59,345.416l5.947,0.05
					c0.309,0.003,0.559,0.198,0.557,0.432l-0.04,4.729c-0.002,0.236-0.257,0.427-0.564,0.424l-5.947-0.05
					c-0.309-0.003-0.56-0.197-0.558-0.434l0.04-4.729C159.027,345.603,159.281,345.413,159.59,345.416L159.59,345.416z
					 M159.914,346.096l-0.036,4.23l5.287,0.045l0.036-4.23L159.914,346.096z"/>
				<path style="fill-rule:evenodd;clip-rule:evenodd;fill:#EA6D30;" d="M162.991,347.35c-0.124,0.072-0.276,0.113-0.446,0.111
					c-0.166-0.001-0.32-0.045-0.443-0.119l0.01-1.209c0.001-0.184,0.203-0.333,0.447-0.331h0.001
					c0.244,0.002,0.442,0.155,0.441,0.339L162.991,347.35z"/>
			</g>
		</g>
		<g>
			<path style="fill:#214B63;" d="M392.825,351.229l-88.286-0.747c-0.782-0.007-1.41-0.646-1.404-1.428l0.073-8.667
				c0.007-0.782,0.646-1.41,1.428-1.404l88.286,0.747c0.782,0.007,1.41,0.646,1.404,1.428l-0.073,8.667
				C394.246,350.608,393.607,351.236,392.825,351.229z"/>
			<path style="fill:#214B63;" d="M403.125,273.184l-88.286-0.747c-0.782-0.007-1.41-0.646-1.404-1.428l0.073-8.667
				c0.007-0.782,0.646-1.41,1.428-1.404l88.286,0.747c0.782,0.007,1.41,0.646,1.404,1.428l-0.073,8.667
				C404.546,272.562,403.907,273.19,403.125,273.184z"/>
			<path style="fill:#FF965F;" d="M398.15,306.458l-85.212-0.721c-1.631-0.014-2.941-1.347-2.928-2.978l0.091-10.752
				c0.014-1.631,1.347-2.941,2.978-2.928l85.212,0.721c1.631,0.014,2.941,1.347,2.928,2.978l-0.091,10.752
				C401.114,305.161,399.78,306.472,398.15,306.458z"/>
			<path style="fill:#4180A9;" d="M392.232,323.067l-86.623-0.733c-1.241-0.01-2.239-1.025-2.228-2.266l0.103-12.163
				c0.01-1.241,1.025-2.239,2.266-2.228l86.623,0.733c1.241,0.01,2.239,1.025,2.228,2.266l-0.103,12.163
				C394.487,322.08,393.473,323.077,392.232,323.067z"/>
			<path style="fill:#7DB4D9;" d="M401.734,339.806l-86.63-0.733c-1.239-0.01-2.235-1.023-2.224-2.262l0.103-12.171
				c0.01-1.239,1.023-2.235,2.262-2.224l86.631,0.733c1.239,0.011,2.235,1.023,2.224,2.262l-0.103,12.171
				C403.985,338.82,402.973,339.816,401.734,339.806z"/>
			<path style="fill:#7DB4D9;" d="M382.889,289.671l-86.63-0.733c-1.239-0.01-2.235-1.023-2.224-2.262l0.103-12.171
				c0.01-1.239,1.023-2.235,2.262-2.224l86.63,0.733c1.239,0.01,2.235,1.023,2.224,2.262l-0.103,12.171
				C385.141,288.686,384.128,289.681,382.889,289.671z"/>
			
				<rect x="302.875" y="272.366" transform="matrix(1 0.0085 -0.0085 1 2.3836 -2.5798)" style="fill:#4180A9;" width="7.039" height="16.658"/>
			
				<rect x="316.484" y="305.798" transform="matrix(1 0.0085 -0.0085 1 2.6712 -2.6982)" style="fill:#214B63;" width="7.039" height="16.658"/>
			
				<rect x="375.53" y="306.297" transform="matrix(1 0.0085 -0.0085 1 2.6775 -3.1981)" style="fill:#214B63;" width="7.039" height="16.658"/>
			
				<rect x="369.006" y="272.925" transform="matrix(1 0.0085 -0.0085 1 2.3947 -3.1441)" style="fill:#4180A9;" width="7.039" height="16.658"/>
			
				<rect x="319.282" y="289.14" transform="matrix(1 0.0085 -0.0085 1 2.5295 -2.6993)" style="fill:#EA6D30;" width="1.725" height="16.658"/>
			
				<rect x="326.042" y="289.198" transform="matrix(1 0.0085 -0.0085 1 2.5301 -2.7564)" style="fill:#EA6D30;" width="1.725" height="16.658"/>
			
				<rect x="322.38" y="322.483" transform="matrix(1 0.0085 -0.0085 1 2.8119 -2.7244)" style="fill:#EA6D30;" width="1.725" height="16.658"/>
			
				<rect x="329.139" y="322.54" transform="matrix(1 0.0085 -0.0085 1 2.8126 -2.7816)" style="fill:#EA6D30;" width="1.725" height="16.658"/>
			
				<rect x="386.157" y="323.023" transform="matrix(1 0.0085 -0.0085 1 2.8187 -3.2642)" style="fill:#EA6D30;" width="1.725" height="16.658"/>
			
				<rect x="392.917" y="323.08" transform="matrix(1 0.0085 -0.0085 1 2.8194 -3.3214)" style="fill:#EA6D30;" width="1.725" height="16.658"/>
			
				<rect x="383.922" y="289.687" transform="matrix(1 0.0085 -0.0085 1 2.5363 -3.2463)" style="fill:#EA6D30;" width="1.725" height="16.658"/>
			
				<rect x="390.681" y="289.745" transform="matrix(1 0.0085 -0.0085 1 2.5371 -3.3035)" style="fill:#EA6D30;" width="1.725" height="16.658"/>
		</g>
		<g>
			<g>
				<path style="fill:#F4C5B5;" d="M340.351,198.765c-1.21,2.554-1.572,5.501-1.018,8.271c-2.745-1.053-5.349-2.473-7.72-4.211
					c-0.17-0.124-0.343-0.255-0.451-0.436c-0.286-0.479-0.021-1.084,0.214-1.591c0.961-2.076,1.372-4.404,1.18-6.683"/>
			</g>
			<g>
				<path style="fill:#4180A9;" d="M382.079,250.286c1.442,0.435,2.38,1.87,2.754,3.329c0.374,1.459,0.305,2.99,0.432,4.49
					c0.337,3.969,2.043,7.676,3.722,11.289c1.459,3.138,2.918,6.277,4.377,9.415c0.361,0.777,0.724,1.557,0.96,2.381
					c0.603,2.102-0.645,3.836-1.473,5.86c3.178,0.44,7.341,1.441,10.519,1.881c1.382,0.191,2.768,0.383,4.164,0.394
					c1.128,0.009,2.46-0.698,3.565-0.924c-3.855-1.073-7.512-2.932-9.791-6.221c-1.794-2.589-2.85-5.621-3.582-8.685
					c-2.126-8.897-1.741-18.492-5.675-26.75"/>
			</g>
			<g>
				<path style="fill:#214B63;" d="M394.26,283.636c-0.318,0.757-0.637,1.513-0.955,2.27c-0.376,0.894-0.757,1.81-0.83,2.79
					c-0.073,0.979,0.225,2.05,0.967,2.608c0.519,0.389,1.176,0.48,1.806,0.503c2.551,0.095,5.128-0.717,7.634-0.192
					c0.847,0.177,1.661,0.504,2.492,0.757c3.59,1.095,7.532,0.775,10.937-0.887c0.28-0.137,0.573-0.298,0.729-0.586
					c0.258-0.477,0.019-1.122-0.385-1.456s-0.925-0.438-1.423-0.544c-3.101-0.659-6.379-1.276-9.218-2.783
					c-0.184-0.098-0.571-0.386-0.769-0.328c-0.228,0.066-0.269,0.228-0.409,0.435c-0.644,0.948-1.469,1.046-2.55,1.119
					C399.259,287.544,396.513,285.84,394.26,283.636"/>
			</g>
			<g>
				<path style="fill:#7DB4D9;" d="M352.862,264.095c10.416-2.762,20.574-6.498,30.297-11.144c1.898-0.907,4.188-1.842,5.994-0.763
					c1.608,0.961,2.019,3.046,2.6,4.826c1.529,4.688,5.116,8.398,8.847,11.622c3.731,3.224,7.769,6.197,10.703,10.16
					c1.383,1.868,2.527,4.033,2.584,6.356c0.01,0.413-0.007,0.855,0.21,1.206c0.169,0.273,0.454,0.449,0.73,0.612
					c4.986,2.944,11.096,5.06,16.509,3.004c-0.818-1.355-2.322-2.106-3.699-2.885c-3.7-2.093-7.01-4.873-9.71-8.156
					c-1.664-2.022-3.092-4.225-4.517-6.423c-5.509-8.499-11.018-16.998-16.527-25.497c-0.934-1.441-1.91-2.925-3.349-3.863
					c-2.421-1.578-5.567-1.275-8.426-0.86c-10.82,1.569-21.53,3.898-32.025,6.964"/>
			</g>
			<g>
				<path style="fill:#214B63;" d="M413.8,284.098c-0.366,0.799-0.731,1.599-1.097,2.398c-0.432,0.944-0.87,1.912-0.953,2.947
					c-0.083,1.035,0.26,2.167,1.115,2.756c0.597,0.412,1.353,0.508,2.078,0.533c2.935,0.103,5.899-0.754,8.783-0.197
					c0.975,0.188,1.911,0.534,2.867,0.802c4.132,1.16,8.666,0.825,12.582-0.929c0.322-0.144,0.659-0.315,0.838-0.619
					c0.296-0.504,0.021-1.186-0.444-1.539c-0.465-0.354-1.065-0.464-1.638-0.576c-3.568-0.699-7.34-1.354-10.607-2.948
					c-0.212-0.104-0.657-0.408-0.885-0.347c-0.262,0.07-0.309,0.241-0.47,0.459c-0.74,1.002-1.69,1.104-2.933,1.18
					C419.555,288.231,416.394,286.428,413.8,284.098"/>
			</g>
			<g>
				<path style="fill:#4180A9;" d="M326.06,236.359c-2.392,3.938-3.875,8.425-4.3,13.013c-0.287,3.099-0.069,6.343,1.356,9.11
					c2.041,3.964,6.31,6.395,10.675,7.301c4.365,0.906,8.882,0.5,13.322,0.089c2.457-0.227,4.915-0.454,7.372-0.682
					c-0.248-5.549-0.456-11.327,1.776-16.414c0.173-0.395,0.317-0.953-0.051-1.178c-0.157-0.096-0.355-0.085-0.539-0.073
					c-3.183,0.222-6.486,0.022-9.369-1.344c-2.883-1.366-5.277-4.079-5.57-7.256c-0.039-0.425-0.11-0.951-0.513-1.091
					c-0.213-0.074-0.445-0.004-0.66,0.061c-4.13,1.256-8.718,0.939-12.636-0.873"/>
			</g>
			<g>
				<path style="fill:#FFD0BC;" d="M348.838,181.614c0.93,2.162,1.876,4.563,1.158,6.804c-0.225,0.702-0.604,1.347-0.821,2.051
					c-0.321,1.042-0.435,2.278-0.012,3.283c0.199,0.475,0.277,0.804,0.519,1.361c0.205,0.472,0.161,1.1-0.303,1.324
					c-0.336,0.162-0.74,0.085-1.094,0.199c-0.645,0.208-0.924,0.946-1.136,1.589c-0.483,1.467-0.861,2.977-1.889,4.13
					c-0.19,0.212-0.625,0.384-0.904,0.441c-0.322,0.066-0.644-0.086-0.938-0.233c-1.389-0.696-2.778-1.392-4.167-2.088
					c-1.355-0.679-2.733-1.374-3.829-2.421c-1.655-1.582-2.527-3.872-2.665-6.157c-0.137-2.285,0.411-4.57,1.267-6.693"/>
			</g>
			<g>
				<path style="fill:#EA6D30;" d="M330.472,201.485c1.923,1.946,4.385,3.354,7.037,4.027c0.597,0.151,1.258,0.088,1.667,0.273
					c0.132,0.06,0.426,1.021,0.581,1.342c1.944,4.001,3.888,8.001,5.832,12.001c0.439,0.904,0.884,1.825,1.04,2.818
					c0.191,1.219-0.066,2.462-0.385,3.654c-0.857,3.197-2.166,6.251-3.471,9.292c-0.338,0.789-0.696,1.604-1.337,2.174
					c-1.02,0.906-2.508,0.991-3.872,1.029c-3.385,0.095-6.771,0.19-10.156,0.286c-0.644,0.018-1.355,0.013-1.838-0.412
					c-0.355-0.312-0.51-0.789-0.642-1.243c-0.934-3.205-1.516-6.499-2.096-9.786c-0.262-1.483-0.524-2.974-0.55-4.479
					c-0.032-1.883,0.306-3.751,0.665-5.6c1.06-5.459,2.453-11.157,6.245-15.225c0.225-0.242,0.534-0.497,0.849-0.395"/>
			</g>
			<g>
				<path style="fill:#FF965F;" d="M339.176,205.785c-0.129,1.415-0.201,3.508-1.485,4.117c-1.228,0.582-2.665-0.147-3.739-0.98
					c-2.333-1.808-4.199-4.214-5.371-6.924c0.755-0.319,1.442-0.798,2.002-1.397C333.126,202.8,336.045,204.562,339.176,205.785"/>
			</g>
			<g>
				<path style="fill:#FFD0BC;" d="M367.67,240.12c1.252-0.231,2.471-0.64,3.609-1.21c0.887-0.444,1.726-0.986,2.642-1.364
					c1.847-0.762,3.978-0.813,5.859-0.14c1.881,0.673,3.496,2.065,4.44,3.826c-1.215-0.082-2.409-0.444-3.465-1.051
					c-0.443-0.255-0.884-0.56-1.392-0.613c-0.364-0.038-0.729,0.059-1.077,0.174c-0.969,0.323-1.885,0.804-2.701,1.418
					c-0.501,0.377-0.978,0.812-1.569,1.022c-0.661,0.236-1.387,0.163-2.085,0.088c-0.977-0.105-1.953-0.211-2.93-0.316"/>
			</g>
			<g>
				<path style="fill:#FF965F;" d="M332.186,209.525c2.3-0.222,3.978,2.409,5.056,4.45c2.056,3.893,2.903,8.294,4.411,12.429
					c1.509,4.136,3.945,8.265,7.936,10.123c1.539,0.717,3.224,1.052,4.89,1.381c2.195,0.434,4.395,0.869,6.623,1.059
					c1.996,0.17,4.003,0.143,6.005,0.204c0.381,0.012,0.781,0.032,1.104,0.235c0.323,0.203,0.516,0.556,0.694,0.894
					c0.399,0.755,0.798,1.51,1.196,2.265c0.164,0.311,0.334,0.65,0.283,0.999c-0.053,0.357-0.325,0.637-0.587,0.887
					c-5.33,5.08-12.36,8.625-19.721,8.777c-7.361,0.153-14.94-3.453-18.609-9.837c-1.742-3.032-2.557-6.498-3.252-9.925
					c-0.687-3.387-1.282-6.828-1.114-10.279c0.139-2.844,0.228-5.552,0.937-8.309C328.593,212.721,330.052,210.16,332.186,209.525"
					/>
			</g>
			<g>
				<path style="fill:#214B63;" d="M349.934,181.91c1.212,3.293,0.413,5.985-1.155,7.94c-1.568,1.955-3.795,3.277-6.09,4.284
					c-1.401,0.614-2.858,1.133-4.139,1.969c-2.408,1.571-3.989,4.123-5.266,6.699c-1.277,2.576-2.346,5.288-4.079,7.582
					c-2.976,3.939-7.888,6.339-12.825,6.266c-3.872-0.057-7.942-1.816-9.747-5.242c-0.78-1.481-1.094-3.17-1.154-4.843
					c-0.163-4.565,1.577-9.169,4.718-12.484c4.586-4.84,11.638-6.719,16.255-11.53c1.345-1.402,2.454-3.026,3.874-4.352
					c2.853-2.663,6.969-3.948,10.81-3.261C344.976,175.624,348.43,178.308,349.934,181.91"/>
			</g>
			<path style="fill:#FFFFFF;" d="M366.693,240.353c-0.003,0.347,0.276,0.631,0.623,0.634c0.347,0.003,0.631-0.276,0.634-0.623
				c0.003-0.347-0.276-0.631-0.623-0.634C366.98,239.727,366.696,240.006,366.693,240.353z"/>
			<path style="fill:#FFFFFF;" d="M336.294,208.155c-0.003,0.347,0.276,0.631,0.623,0.634c0.347,0.003,0.631-0.276,0.634-0.623
				c0.003-0.347-0.276-0.631-0.623-0.634C336.581,207.529,336.297,207.808,336.294,208.155z"/>
			<g>
				<path style="fill:#214B63;" d="M370.488,244.648c9.11-1.448,18.221-2.897,27.331-4.345c0.314-0.05,0.48-0.377,0.509-0.657
					c0.968-9.444,1.935-18.889,2.903-28.333c0.09-0.878-1.282-0.884-1.371-0.012c-0.465,4.541-0.93,9.081-1.396,13.622
					c-0.329,3.216-0.659,6.433-0.988,9.649c-0.108,1.057,0.131,4.091-0.513,5.007c0.831-1.182-2.372-0.145-3.37,0.014
					c-3.085,0.49-6.169,0.981-9.254,1.471c-4.735,0.753-9.47,1.505-14.204,2.258C369.265,243.461,369.622,244.786,370.488,244.648
					L370.488,244.648z"/>
			</g>
		</g>
		<g>
			<polygon style="fill:#FF965F;" points="308.853,163.854 309.119,162.736 309.001,147.714 302.253,161.103 301.986,162.223 			"/>
			<polygon style="fill:#214B63;" points="309.06,150.913 309.001,147.714 307.532,150.551 			"/>
			<path style="fill:#EA6D30;" d="M290.225,242.188c-0.453,1.905-2.367,3.082-4.272,2.629l0,0c-1.906-0.454-3.083-2.366-2.629-4.271
				l0.631-2.649c0.454-1.906,2.366-3.083,4.272-2.629l0,0c1.906,0.454,3.083,2.366,2.63,4.272L290.225,242.188z"/>
			
				<rect x="257.979" y="196.053" transform="matrix(0.2316 -0.9728 0.9728 0.2316 33.8305 442.0296)" style="fill:#7DB4D9;" width="77.474" height="7.094"/>
			
				<rect x="259.766" y="198.315" transform="matrix(0.2316 -0.9728 0.9728 0.2316 34.7899 444.0948)" style="fill:#4180A9;" width="77.474" height="3.421"/>
			
				<rect x="258.102" y="198.747" transform="matrix(0.2316 -0.9728 0.9728 0.2316 33.8933 442.1681)" style="fill:#214B63;" width="77.474" height="1.764"/>
			
				<rect x="285.952" y="235.154" transform="matrix(0.2316 -0.9728 0.9728 0.2316 -11.3593 463.0224)" style="fill:#214B63;" width="2.913" height="7.094"/>
		</g>
		<g>
			<g>
				<path style="fill:#EA6D30;" d="M230.837,245.691c-0.159,0.397-0.387,0.766-0.68,1.094c-0.659,0.736-1.566,1.171-2.552,1.226
					c-2.036,0.113-3.785-1.452-3.898-3.49l-0.361-6.506c-0.009-0.151,0.107-0.281,0.259-0.289c0.151-0.009,0.281,0.108,0.289,0.259
					l0.361,6.506c0.096,1.735,1.586,3.068,3.32,2.972c0.841-0.047,1.612-0.417,2.174-1.044c0.562-0.629,0.844-1.437,0.798-2.276
					l-0.603-10.89c-0.073-1.32-1.208-2.335-2.529-2.263c-1.32,0.074-2.336,1.208-2.263,2.529l0.533,9.621
					c0.049,0.891,0.815,1.576,1.707,1.527c0.893-0.05,1.577-0.817,1.527-1.707l-0.502-9.064c-0.009-0.151,0.107-0.281,0.259-0.289
					c0.151-0.009,0.281,0.108,0.289,0.259l0.502,9.064c0.065,1.194-0.851,2.219-2.044,2.285c-1.194,0.065-2.219-0.852-2.285-2.045
					l-0.533-9.621c-0.089-1.619,1.157-3.015,2.78-3.106c1.624-0.09,3.017,1.157,3.107,2.78l0.603,10.89
					C231.124,244.661,231.035,245.197,230.837,245.691z"/>
			</g>
		</g>
		<g>
			<path style="fill:#FFFFFF;" d="M278.028,224.313c7.832,9.274,6.665,23.143-2.611,30.978c-9.276,7.834-23.144,6.665-30.978-2.61
				c-7.833-9.274-6.666-23.145,2.611-30.979C256.324,213.87,270.193,215.037,278.028,224.313z"/>
			<path style="fill:#FFFFFF;" d="M277.801,224.254c7.832,9.274,6.665,23.143-2.611,30.978c-9.276,7.834-23.144,6.665-30.978-2.61
				c-7.833-9.274-6.666-23.145,2.611-30.979C256.098,213.811,269.967,214.978,277.801,224.254z"/>
			<g>
				<path style="fill:#F2F2F2;" d="M255.606,259.747l11.249-42.503c-11.736-3.105-23.769,3.892-26.875,15.628
					C236.874,244.607,243.871,256.64,255.606,259.747z"/>
			</g>
			<path style="fill:#EA6D30;" d="M277.617,253.27l-4.938,4.168c-0.253,0.216-0.257,0.627-0.01,0.921l26.933,32.82l1.405,1.663
				c1.829,2.167,4.83,2.642,6.701,1.063c1.872-1.58,1.903-4.618,0.073-6.784l-1.404-1.663l-27.852-32.044
				C278.278,253.118,277.871,253.055,277.617,253.27z"/>
			<g>
				<path style="fill:#EA6D30;" d="M267.199,215.628c4.696,1.214,8.892,3.842,12.086,7.623l0,0.001
					c8.406,9.953,7.147,24.89-2.807,33.297c-9.953,8.406-24.889,7.147-33.297-2.805c-4.072-4.822-6.024-10.94-5.493-17.23
					c0.53-6.29,3.478-11.996,8.3-16.068c4.821-4.072,10.94-6.023,17.229-5.493C264.574,215.066,265.906,215.293,267.199,215.628z
					 M276.77,225.375c-3.505-4.15-8.413-6.685-13.83-7.143c-5.412-0.455-10.679,1.223-14.829,4.728
					c-4.15,3.505-6.687,8.416-7.144,13.83c-0.456,5.413,1.223,10.68,4.728,14.829c7.237,8.567,20.092,9.649,28.659,2.415
					C282.921,246.797,284.005,233.941,276.77,225.375L276.77,225.375z"/>
			</g>
		</g>
	</g>
</g>

</svg>
