<?xml version="1.0" encoding="utf-8"?>
<!-- Generator: Adobe Illustrator 27.5.0, SVG Export Plug-In . SVG Version: 6.00 Build 0)  -->
<svg version="1.1" xmlns="http://www.w3.org/2000/svg" xmlns:xlink="http://www.w3.org/1999/xlink" x="0px" y="0px"
	 viewBox="0 0 750 500" style="enable-background:new 0 0 750 500;" xml:space="preserve">
<g id="BACKGROUND">
	<rect style="fill:#F7F2EB;" width="750" height="500"/>
	<g>
		<g style="opacity:0.7;">
			<path style="fill:#EAE1D6;" d="M229.689,290.159c-1.88-1.342-4.2-1.606-6.236-0.927l-8.878-19.279
				c1.855-0.977,3.523-2.378,4.825-4.201c4.456-6.241,3.009-14.913-3.232-19.369c-6.241-4.456-14.913-3.009-19.369,3.232
				c-4.456,6.241-3.009,14.913,3.232,19.369c3.981,2.842,8.948,3.273,13.182,1.599l8.874,19.272c-0.796,0.476-1.51,1.117-2.083,1.92
				c-2.228,3.121-1.505,7.456,1.616,9.684c3.12,2.228,7.456,1.504,9.684-1.616C233.533,296.723,232.81,292.387,229.689,290.159z"/>
			<path style="fill:#EAE1D6;" d="M128.166,318.774c-3.121-2.228-7.456-1.505-9.684,1.616c-2.228,3.121-1.504,7.456,1.616,9.684
				c3.121,2.228,7.456,1.504,9.684-1.616C132.01,325.338,131.286,321.002,128.166,318.774z"/>
			<path style="fill:#EAE1D6;" d="M194.265,256.292l0.23-1.482l-15.423-2.398c0.737-6.492-1.97-13.179-7.664-17.245
				c-5.878-4.197-13.359-4.468-19.36-1.361l-9.506-16.641c1.433-0.924,2.725-2.12,3.776-3.592
				c4.456-6.241,3.009-14.913-3.232-19.369c-6.241-4.456-14.913-3.009-19.369,3.232c-2.561,3.588-3.163,7.975-2.034,11.907
				l-26.872,9.337l0.176,0.508c-0.47-1.234-1.294-2.348-2.45-3.173c-3.121-2.228-7.456-1.505-9.684,1.616
				c-2.228,3.12-1.504,7.456,1.616,9.684c3.12,2.228,7.456,1.505,9.684-1.616c1.363-1.908,1.616-4.27,0.897-6.328l0.252,0.725
				l26.875-9.338c0.958,2.346,2.556,4.464,4.771,6.045c4.335,3.095,9.839,3.336,14.292,1.108l9.498,16.628
				c-2.006,1.255-3.807,2.909-5.267,4.954c-5.967,8.357-4.029,19.969,4.328,25.936c2.755,1.967,5.864,3.058,9.008,3.36
				l-1.051,18.604c-4.34-0.006-8.619,2.004-11.333,5.806c-3.337,4.674-3.363,10.712-0.543,15.321l-16.46,11.346l0.852,1.235
				l16.464-11.348c0.812,1.05,1.784,2.004,2.92,2.815c6.241,4.456,14.913,3.009,19.369-3.232c4.456-6.241,3.009-14.913-3.232-19.369
				c-2.002-1.429-4.254-2.244-6.537-2.495l1.05-18.591c5.899,0.089,11.743-2.615,15.431-7.78c1.59-2.228,2.602-4.688,3.098-7.21
				L194.265,256.292z"/>
			<path style="fill:#EAE1D6;" d="M383.089,104.535l0.609-1.244l-26.264-12.864c0.54-1.568,0.384-3.357-0.612-4.839
				c-1.062-1.581-2.805-2.428-4.576-2.42l-1.636-23.98c0.749-0.124,1.485-0.395,2.156-0.846c2.512-1.688,3.179-5.092,1.491-7.604
				c-1.688-2.512-5.092-3.179-7.604-1.491c-0.575,0.386-1.04,0.87-1.416,1.405l-22.27-10.908c0.388-1.471,0.188-3.09-0.728-4.452
				c-1.688-2.512-5.092-3.179-7.604-1.492c-2.315,1.556-3.038,4.561-1.82,6.99l-19.582,13.16c-1.789-2.045-4.845-2.511-7.16-0.955
				c-0.676,0.455-1.207,1.039-1.606,1.692l-26.682-13.07l-0.609,1.244l26.734,13.095c-0.461,1.52-0.285,3.221,0.671,4.643
				c0.955,1.422,2.463,2.227,4.045,2.375l1.678,24.594c-0.637,0.146-1.261,0.394-1.836,0.78c-2.315,1.556-3.038,4.561-1.82,6.99
				l-19.921,13.388c-1.751-2.258-4.961-2.823-7.367-1.206c-0.671,0.451-1.2,1.03-1.598,1.677l-21.699-10.628
				c0.6-1.601,0.456-3.454-0.57-4.981c-1.688-2.512-5.092-3.179-7.604-1.491c-2.407,1.618-3.096,4.803-1.666,7.277l-20.065,13.485
				c-1.75-2.258-4.961-2.824-7.368-1.206c-0.623,0.419-1.132,0.944-1.52,1.535l-26.597-13.027l-0.609,1.244l26.615,13.036
				c-0.531,1.563-0.372,3.341,0.619,4.816c1.025,1.525,2.683,2.357,4.389,2.409l1.664,24.398c-0.693,0.137-1.372,0.409-1.995,0.828
				c-2.512,1.688-3.179,5.092-1.491,7.604c1.688,2.512,5.092,3.179,7.604,1.491c0.623-0.419,1.132-0.944,1.52-1.535l21.734,10.646
				c-0.531,1.563-0.372,3.341,0.619,4.816c1.688,2.512,5.092,3.179,7.604,1.491c2.315-1.556,3.038-4.561,1.82-6.99l20.119-13.521
				c1.789,2.045,4.845,2.511,7.16,0.956c0.623-0.419,1.132-0.944,1.52-1.535l21.73,10.643c-0.534,1.564-0.376,3.346,0.617,4.823
				c1.688,2.512,5.092,3.179,7.604,1.491c2.315-1.556,3.038-4.561,1.82-6.99l19.948-13.406c1.789,2.045,4.845,2.511,7.16,0.956
				c2.512-1.688,3.179-5.092,1.491-7.604c-0.955-1.422-2.463-2.228-4.045-2.375l-1.656-24.278c0.693-0.136,1.372-0.409,1.995-0.828
				c2.407-1.617,3.096-4.803,1.666-7.277l20.065-13.485c1.75,2.258,4.961,2.824,7.367,1.206c0.616-0.414,1.118-0.933,1.505-1.516
				L383.089,104.535z M344.59,51.877c-0.597,1.599-0.452,3.449,0.573,4.973c0.959,1.426,2.474,2.233,4.062,2.377l1.647,24.144
				c-0.573,0.152-1.134,0.377-1.654,0.726c-2.223,1.494-2.993,4.329-1.973,6.703l-20.173,13.557
				c-1.813-1.841-4.729-2.198-6.952-0.705c-0.623,0.419-1.132,0.944-1.52,1.535l-21.854-10.704c0.461-1.52,0.285-3.221-0.671-4.643
				c-1.025-1.524-2.683-2.357-4.389-2.409l-1.672-24.493c0.755-0.123,1.497-0.393,2.173-0.848c2.315-1.556,3.038-4.561,1.82-6.99
				l19.582-13.16c1.789,2.045,4.845,2.511,7.16,0.956c0.735-0.494,1.291-1.144,1.697-1.866L344.59,51.877z M209.583,153.199
				c0.531-1.563,0.372-3.34-0.619-4.816c-0.992-1.476-2.578-2.294-4.225-2.393l-1.669-24.462c0.637-0.146,1.261-0.394,1.836-0.78
				c2.223-1.494,2.993-4.329,1.973-6.703l20.173-13.558c1.813,1.841,4.729,2.198,6.952,0.705c0.573-0.385,1.036-0.867,1.411-1.4
				l21.789,10.673c-0.467,1.524-0.293,3.232,0.666,4.659c1.025,1.524,2.683,2.357,4.389,2.409l1.664,24.396
				c-0.691,0.137-1.367,0.408-1.988,0.826c-2.315,1.555-3.038,4.561-1.82,6.99l-20.119,13.521c-1.789-2.045-4.845-2.511-7.16-0.955
				c-0.623,0.419-1.132,0.945-1.52,1.535L209.583,153.199z M270.159,149.062c0.531-1.563,0.372-3.341-0.619-4.816
				c-0.992-1.476-2.578-2.294-4.226-2.393l-1.669-24.459c0.635-0.146,1.257-0.393,1.829-0.778c2.223-1.494,2.993-4.329,1.973-6.703
				l19.975-13.424c1.789,2.045,4.845,2.511,7.16,0.956c0.671-0.451,1.2-1.03,1.598-1.677l21.823,10.689
				c-0.524,1.559-0.364,3.329,0.624,4.8c0.992,1.476,2.578,2.294,4.225,2.393l1.654,24.24c-0.755,0.123-1.497,0.393-2.173,0.848
				c-2.315,1.556-3.038,4.561-1.82,6.99l-19.948,13.406c-1.789-2.045-4.845-2.511-7.16-0.955c-0.621,0.417-1.128,0.941-1.516,1.529
				L270.159,149.062z"/>
			<path style="fill:#EAE1D6;" d="M506,205.04c-3.397-7.816-14.057-11.835-30.018-11.332c-4.542,0.145-9.372,0.661-14.391,1.505
				c-1.227-4.939-2.68-9.574-4.358-13.797c-5.896-14.839-13.837-23.011-22.359-23.011c-8.523,0-16.463,8.172-22.36,23.011
				c-1.678,4.223-3.13,8.858-4.357,13.797c-5.019-0.844-9.849-1.36-14.391-1.505c-15.959-0.499-26.62,3.516-30.018,11.332
				c-3.099,7.127,0.248,16.523,9.395,26.71c-0.922,1.156-1.477,2.618-1.477,4.212c0,1.593,0.555,3.055,1.477,4.211
				c-9.147,10.186-12.493,19.582-9.394,26.709c3.206,7.375,12.879,11.374,27.37,11.374c0.865,0,1.749-0.014,2.647-0.043
				c4.542-0.145,9.371-0.661,14.391-1.505c1.227,4.939,2.679,9.574,4.358,13.797c5.896,14.839,13.837,23.011,22.36,23.011
				c8.522,0,16.463-8.172,22.359-23.011c1.678-4.223,3.13-8.858,4.358-13.797c5.019,0.844,9.849,1.36,14.391,1.505
				c0.9,0.029,1.781,0.043,2.647,0.043c2.897,0,5.592-0.167,8.091-0.482c0.947,2.592,3.427,4.446,6.347,4.446
				c3.735,0,6.763-3.028,6.763-6.763c0-0.574-0.079-1.128-0.214-1.661c3.002-1.794,5.165-4.109,6.385-6.915
				c3.397-7.816-0.932-18.357-12.189-29.68c-0.412-0.415-0.847-0.827-1.274-1.241c0.427-0.413,0.862-0.826,1.274-1.24
				C505.068,223.396,509.397,212.855,506,205.04z M434.874,160.156c10.514,0,19.758,14.129,25.009,35.351
				c-7.985,1.451-16.432,3.744-25.009,6.785c-8.577-3.041-17.024-5.334-25.009-6.785
				C415.116,174.285,424.36,160.156,434.874,160.156z M466.197,238.297c2.895-0.765,5.033-3.395,5.033-6.531
				c0-3.237-2.275-5.939-5.312-6.603c-0.13-2.342-0.304-4.656-0.517-6.941c9.737,5.6,18.128,11.674,24.669,17.738
				c-6.541,6.064-14.932,12.138-24.669,17.738C465.867,248.693,466.135,243.54,466.197,238.297z M464.155,225.019
				c-3.589,0.164-6.45,3.117-6.45,6.747c0,3.726,3.014,6.747,6.737,6.761c-0.073,5.581-0.375,11.016-0.897,16.232
				c-5.276,2.949-10.924,5.755-16.874,8.341c-3.939,1.712-7.881,3.265-11.798,4.668c-3.917-1.404-7.86-2.956-11.798-4.668
				c-5.894-2.562-11.549-5.364-16.873-8.342c-0.601-6.013-0.922-12.312-0.922-18.798c0-6.487,0.321-12.785,0.922-18.799
				c5.325-2.978,10.979-5.779,16.873-8.342c3.939-1.712,7.881-3.265,11.798-4.669c3.917,1.404,7.86,2.956,11.798,4.669
				c5.949,2.587,11.598,5.392,16.874,8.341C463.802,219.73,464.004,222.354,464.155,225.019z M463.312,256.884
				c-0.709,6.316-1.727,12.299-3.016,17.826c-7.294-1.32-14.986-3.35-22.817-6.024c3.29-1.221,6.593-2.544,9.892-3.979
				C452.919,262.295,458.253,259.668,463.312,256.884z M432.268,268.686c-7.831,2.674-15.522,4.704-22.816,6.024
				c-1.289-5.527-2.307-11.51-3.016-17.826c5.058,2.784,10.392,5.411,15.94,7.823C425.675,266.142,428.978,267.465,432.268,268.686z
				 M384.038,232.183c5.863-4.888,12.731-9.601,20.309-13.961c-0.536,5.749-0.819,11.689-0.819,17.739
				c0,6.05,0.283,11.989,0.819,17.738c-7.577-4.361-14.445-9.073-20.308-13.961c0.728-1.079,1.153-2.378,1.153-3.777
				C385.191,234.562,384.766,233.262,384.038,232.183z M422.376,207.214c-5.548,2.412-10.882,5.039-15.94,7.823
				c0.709-6.316,1.727-12.299,3.016-17.826c7.294,1.32,14.986,3.35,22.816,6.024C428.978,204.456,425.675,205.779,422.376,207.214z
				 M447.371,207.214c-3.299-1.434-6.602-2.758-9.892-3.979c7.831-2.674,15.523-4.704,22.817-6.024
				c1.289,5.527,2.307,11.51,3.016,17.826C458.253,212.253,452.919,209.625,447.371,207.214z M365.355,205.738
				c2.91-6.694,12-10.321,25.728-10.321c0.857,0,1.734,0.014,2.628,0.042c4.428,0.141,9.136,0.642,14.03,1.459
				c-1.406,6.001-2.473,12.438-3.182,19.165c-8.113,4.593-15.455,9.592-21.685,14.79c-1.189-1.04-2.741-1.675-4.445-1.675
				c-1.509,0-2.899,0.501-4.024,1.337C365.77,220.917,362.548,212.196,365.355,205.738z M393.71,276.461
				c-15.194,0.482-25.263-3.166-28.355-10.279c-2.807-6.458,0.415-15.178,9.049-24.796c1.125,0.836,2.515,1.337,4.025,1.337
				c1.704,0,3.257-0.635,4.446-1.676c6.23,5.198,13.572,10.197,21.684,14.789c0.709,6.726,1.776,13.164,3.182,19.165
				C402.846,275.819,398.138,276.32,393.71,276.461z M434.874,311.764c-10.514,0-19.759-14.129-25.009-35.351
				c7.985-1.452,16.431-3.744,25.009-6.785c8.578,3.041,17.025,5.334,25.009,6.785C454.632,297.636,445.388,311.764,434.874,311.764
				z M504.392,266.183c-1.04,2.392-2.886,4.381-5.432,5.964c-1.159-2.059-3.362-3.452-5.893-3.452c-3.735,0-6.763,3.028-6.763,6.762
				c0,0.206,0.013,0.41,0.031,0.611c-3.101,0.376-6.541,0.511-10.298,0.393c-4.428-0.141-9.136-0.642-14.031-1.46
				c1.406-6.001,2.473-12.439,3.182-19.165c10.13-5.735,19.051-12.106,26.117-18.701
				C502.462,247.868,507.75,258.459,504.392,266.183z M465.188,216.083c-0.709-6.726-1.776-13.164-3.182-19.165
				c4.894-0.817,9.603-1.318,14.031-1.459c0.894-0.028,1.77-0.042,2.628-0.042c13.726,0,22.817,3.627,25.728,10.321
				c3.357,7.723-1.93,18.314-13.087,29.047C484.24,228.189,475.319,221.818,465.188,216.083z"/>
			<circle style="fill:#EAE1D6;" cx="434.874" cy="235.96" r="12.627"/>
			<path style="fill:#EAE1D6;" d="M421.334,72.311c2.104,0.956,4.431,0.769,6.298-0.289l12.417,17.214
				c-1.633,1.316-3,3.011-3.927,5.05c-3.173,6.981-0.087,15.213,6.894,18.386c6.981,3.174,15.213,0.087,18.386-6.894
				c3.173-6.981,0.087-15.213-6.894-18.386c-4.453-2.024-9.41-1.492-13.244,0.964l-12.412-17.208
				c0.689-0.62,1.267-1.386,1.675-2.284c1.587-3.491,0.043-7.607-3.447-9.193c-3.491-1.587-7.607-0.043-9.193,3.447
				C416.3,66.608,417.844,70.724,421.334,72.311z"/>
			<path style="fill:#EAE1D6;" d="M515.466,24.718c3.49,1.587,7.606,0.043,9.193-3.447c1.587-3.491,0.044-7.606-3.447-9.193
				c-3.491-1.587-7.607-0.043-9.193,3.447C510.432,19.015,511.976,23.131,515.466,24.718z"/>
			<path style="fill:#EAE1D6;" d="M575.923,106.073c-3.491-1.587-7.607-0.043-9.193,3.447c-0.971,2.136-0.765,4.503,0.337,6.385
				l-0.388-0.665l-24.58,14.328c-1.391-2.119-3.366-3.889-5.844-5.016c-4.849-2.204-10.297-1.383-14.238,1.66l-12.517-14.493
				c1.727-1.617,3.177-3.587,4.217-5.874c4.25-9.348,0.116-20.371-9.232-24.62c-3.082-1.401-6.343-1.874-9.485-1.566L492.457,61.2
				c4.26-0.828,8.073-3.624,10.006-7.875c2.377-5.229,1.241-11.159-2.412-15.14l13.973-14.297l-1.072-1.049l-13.976,14.301
				c-0.998-0.875-2.136-1.624-3.407-2.201c-6.981-3.174-15.213-0.087-18.386,6.894c-3.173,6.981-0.087,15.213,6.894,18.387
				c2.239,1.018,4.607,1.384,6.895,1.192l2.542,18.446c-5.806,1.046-11.021,4.823-13.648,10.6c-1.133,2.492-1.653,5.101-1.654,7.671
				l-15.605,0.611l0.059,1.499l15.597-0.611c0.525,6.513,4.466,12.554,10.836,15.45c6.575,2.989,13.969,1.817,19.261-2.385
				l12.526,14.504c-1.229,1.182-2.267,2.604-3.016,4.251c-3.173,6.981-0.087,15.213,6.894,18.387
				c6.981,3.174,15.213,0.087,18.387-6.894c1.824-4.013,1.571-8.435-0.293-12.076l24.577-14.327l-0.271-0.465
				c0.698,1.12,1.722,2.055,3.014,2.643c3.491,1.587,7.607,0.043,9.193-3.447C580.957,111.776,579.414,107.66,575.923,106.073z"/>
		</g>
		<g>
			<path style="fill:#EAE1D6;" d="M0,238.488c1.623-0.325,3.236-0.702,4.834-1.147c22.936-6.379,42.089-24.96,49.16-47.691
				c7.179-23.08,2.307-47.923,2.137-72.093c-0.17-24.17,6.8-51.637,28.269-62.741c25.647-13.265,59.149,3.277,84.98-9.626
				C185.622,37.075,194.262,18.278,193.602,0H0V238.488z"/>
			<path style="fill:#EAE1D6;" d="M750,0H605.284c-6.888,16.275-10.075,34.128-8.951,51.77
				c1.849,29.026,15.323,57.148,36.787,76.775c9.712,8.881,21.072,16.195,28.84,26.818c12.392,16.947,13.662,39.705,10.464,60.454
				c-3.198,20.749-10.331,40.765-13.085,61.577c-2.754,20.813-0.458,43.661,12.993,59.779
				c15.919,19.075,43.223,24.039,68.061,23.459c3.189-0.074,6.398-0.241,9.606-0.493V0z"/>
			<path style="fill:#EAE1D6;" d="M75.281,97.912c-1.044,3.701-1.695,7.721-0.397,11.34c1.35,3.764,4.735,6.598,8.542,7.818
				c3.808,1.22,7.981,0.953,11.817-0.175c6.454-1.898,12.151-6.254,15.674-11.985c3.523-5.731,4.838-12.781,3.619-19.397
				c-1.666-9.032-11.235-19.756-21.327-15.155C84.175,74.479,77.76,89.128,75.281,97.912z"/>
			<path style="fill:#EAE1D6;" d="M634.756,206.337c1.505,3.784,3.958,7.971,8.01,8.376c4.338,0.434,7.684-3.772,9.363-7.794
				c5.489-13.151,1.651-39.012-14.24-44.422C621.094,156.779,632.506,200.681,634.756,206.337z"/>
		</g>
	</g>
	<g>
		<g>
			<path style="fill:#9CD7E0;" d="M517.727,310.508c-3.861,0-3.867,6,0,6C521.588,316.508,521.594,310.508,517.727,310.508z"/>
			<path style="fill:#9CD7E0;" d="M386.512,148.559c-3.861,0-3.867,6,0,6C390.373,154.559,390.379,148.559,386.512,148.559z"/>
			<path style="fill:#9CD7E0;" d="M530.73,87.089c-3.861,0-3.867,6,0,6C534.591,93.089,534.597,87.089,530.73,87.089z"/>
			<path style="fill:#9CD7E0;" d="M635.939,246.674c-3.861,0-3.867,6,0,6C639.799,252.674,639.806,246.674,635.939,246.674z"/>
			<path style="fill:#9CD7E0;" d="M250.569,30.347c-3.861,0-3.867,6,0,6C254.43,36.347,254.436,30.347,250.569,30.347z"/>
			<path style="fill:#9CD7E0;" d="M98.076,150.923c-3.861,0-3.867,6,0,6C101.937,156.923,101.943,150.923,98.076,150.923z"/>
			<path style="fill:#9CD7E0;" d="M254.115,278.591c-3.861,0-3.867,6,0,6C257.976,284.591,257.982,278.591,254.115,278.591z"/>
			<path style="fill:#9CD7E0;" d="M71.264,367.415c-3.861,0-3.867,6,0,6C75.125,373.415,75.132,367.415,71.264,367.415z"/>
			<path style="fill:#9CD7E0;" d="M237.566,377.889c-3.861,0-3.867,6,0,6C241.426,383.889,241.433,377.889,237.566,377.889z"/>
			<path style="fill:#9CD7E0;" d="M686.769,384.982c-3.861,0-3.867,6,0,6C690.63,390.982,690.637,384.982,686.769,384.982z"/>
		</g>
		<g>
			<path style="fill:#195C9E;" d="M38.322,297.135c-3.861,0-3.867,6,0,6C42.183,303.135,42.189,297.135,38.322,297.135z"/>
			<path style="fill:#195C9E;" d="M35.424,45.715c-3.861,0-3.867,6,0,6C39.285,51.715,39.291,45.715,35.424,45.715z"/>
			<path style="fill:#195C9E;" d="M184.371,191.115c-3.861,0-3.867,6,0,6C188.231,197.115,188.238,191.115,184.371,191.115z"/>
			<path style="fill:#195C9E;" d="M385.33,42.168c-3.861,0-3.867,6,0,6C389.191,48.168,389.197,42.168,385.33,42.168z"/>
			<path style="fill:#195C9E;" d="M540.187,193.479c-3.861,0-3.867,6,0,6C544.048,199.479,544.054,193.479,540.187,193.479z"/>
			<path style="fill:#195C9E;" d="M656.034,51.625c-3.861,0-3.867,6,0,6C659.895,57.625,659.902,51.625,656.034,51.625z"/>
			<path style="fill:#195C9E;" d="M722.233,285.684c-3.861,0-3.867,6,0,6C726.094,291.684,726.1,285.684,722.233,285.684z"/>
			<path style="fill:#195C9E;" d="M353.481,240.797c-3.861,0-3.867,6,0,6C357.342,246.797,357.348,240.797,353.481,240.797z"/>
			<path style="fill:#195C9E;" d="M459.803,266.954c-3.861,0-3.867,6,0,6C463.664,272.954,463.671,266.954,459.803,266.954z"/>
		</g>
	</g>
</g>
<g id="OBJECTS">
	<g>
		<ellipse style="fill:#EAE1D6;" cx="375" cy="432.164" rx="314.809" ry="14.889"/>
		<g>
			<g>
				<g>
					<path style="fill:#195C9E;" d="M366.366,377.113h-61.613c-28.296,0-51.315-23.019-51.315-51.315v-2.771h18.111v2.771
						c0,18.309,14.895,33.204,33.204,33.204h61.613c18.309,0,33.204-14.895,33.204-33.204v-96.745
						c0-18.309-14.895-33.204-33.204-33.204h-75.726v-18.111h75.726c28.296,0,51.315,23.019,51.315,51.315v96.745
						C417.681,354.094,394.662,377.113,366.366,377.113z"/>
				</g>
				<path style="fill:#145284;" d="M366.366,177.738H335.56v18.111h30.807c18.309,0,33.204,14.895,33.204,33.204v96.745
					c0,18.309-14.895,33.204-33.204,33.204H335.56v18.111h30.807c28.296,0,51.315-23.019,51.315-51.315v-96.745
					C417.681,200.758,394.662,177.738,366.366,177.738z"/>
				<rect x="245.88" y="82.359" style="fill:#195C9E;" width="33.227" height="31.972"/>
				<path style="fill:#F0C700;" d="M282.215,73.899h-39.442c-1.667,0-3.019,1.352-3.019,3.019v2.423
					c0,1.667,1.352,3.019,3.019,3.019h39.442c1.667,0,3.018-1.351,3.018-3.019v-2.423C285.234,75.251,283.882,73.899,282.215,73.899
					z"/>
				<path style="fill:#9CD7E0;" d="M287.622,226.376h-50.257c-1.667,0-3.018-1.352-3.018-3.019V117.349
					c0-1.667,1.351-3.019,3.018-3.019h50.257c1.667,0,3.019,1.352,3.019,3.019v106.009
					C290.641,225.025,289.29,226.376,287.622,226.376z"/>
				<path style="fill:#DBB205;" d="M282.215,73.899h-19.721v8.46h19.721c1.667,0,3.018-1.351,3.018-3.019v-2.423
					C285.234,75.251,283.882,73.899,282.215,73.899z"/>
				<rect x="262.494" y="82.359" style="fill:#145284;" width="16.614" height="31.972"/>
				<path style="fill:#83C5CC;" d="M287.623,114.331h-25.129v112.046h25.129c1.667,0,3.018-1.352,3.018-3.019V117.349
					C290.641,115.682,289.29,114.331,287.623,114.331z"/>
				<path style="fill:#195C9E;" d="M437.168,432.164H237.365c-1.667,0-3.018-1.351-3.018-3.019v-15.564
					c0-1.667,1.351-3.018,3.018-3.018h199.803c1.667,0,3.019,1.352,3.019,3.018v15.564
					C440.187,430.812,438.835,432.164,437.168,432.164z"/>
				<rect x="243.422" y="226.376" style="fill:#195C9E;" width="38.144" height="12.504"/>
				<path style="fill:#143966;" d="M289.132,247.131h-53.276c-0.834,0-1.509-0.676-1.509-1.509v-5.233
					c0-0.834,0.676-1.509,1.509-1.509h53.276c0.834,0,1.509,0.676,1.509,1.509v5.233
					C290.641,246.456,289.965,247.131,289.132,247.131z"/>
				<path style="fill:#F0C700;" d="M321.192,332.195H203.796c-3.044,0-5.512-2.468-5.512-5.512l0,0c0-3.044,2.468-5.512,5.512-5.512
					h117.396c3.044,0,5.512,2.468,5.512,5.512l0,0C326.704,329.727,324.236,332.195,321.192,332.195z"/>
				<circle style="fill:#F0C700;" cx="290.641" cy="186.794" r="26.278"/>
				<path style="fill:#143966;" d="M343.63,410.563v-58.101c0-3.334,2.703-6.037,6.037-6.037h25.235
					c2.122,0,4.088,1.114,5.178,2.934l36.678,61.204H343.63z"/>
				
					<ellipse transform="matrix(0.2286 -0.9735 0.9735 0.2286 -76.2708 639.8625)" style="fill:#F0C700;" cx="365.609" cy="368.057" rx="12.128" ry="12.128"/>
				<path style="fill:#195C9E;" d="M372.027,368.057c0,3.545-2.874,6.418-6.418,6.418c-3.545,0-6.418-2.874-6.418-6.418
					s2.874-6.418,6.418-6.418C369.153,361.639,372.027,364.512,372.027,368.057z"/>
				<rect x="399.57" y="249.598" style="fill:#83C5CC;" width="18.111" height="55.655"/>
				<rect x="262.494" y="226.376" style="fill:#145284;" width="19.072" height="12.504"/>
				<path style="fill:#103151;" d="M289.132,238.88h-26.638v8.251h26.638c0.833,0,1.509-0.676,1.509-1.509v-5.233
					C290.641,239.556,289.965,238.88,289.132,238.88z"/>
				<path style="fill:#DBB205;" d="M316.919,186.794c0-14.513-11.765-26.278-26.278-26.278v52.557
					C305.154,213.072,316.919,201.307,316.919,186.794z"/>
				<circle style="fill:#195C9E;" cx="290.641" cy="186.794" r="16.601"/>
				<path style="fill:#145284;" d="M307.242,186.794c0-9.168-7.432-16.601-16.601-16.601v33.202
					C299.81,203.394,307.242,195.962,307.242,186.794z"/>
				<polygon style="fill:#103151;" points="380.194,410.563 416.758,410.563 380.194,349.548 				"/>
				<path style="fill:#DBB205;" d="M365.609,355.929v24.255c6.698,0,12.127-5.43,12.127-12.128
					C377.736,361.359,372.306,355.929,365.609,355.929z"/>
				<path style="fill:#195C9E;" d="M372.027,368.057c0,3.545-2.874,6.418-6.418,6.418c-3.545,0-6.418-2.874-6.418-6.418
					s2.874-6.418,6.418-6.418C369.153,361.639,372.027,364.512,372.027,368.057z"/>
				<path style="fill:#145284;" d="M372.027,368.057c0-3.545-2.874-6.418-6.418-6.418v12.837
					C369.153,374.475,372.027,371.602,372.027,368.057z"/>
				<path style="fill:#145284;" d="M437.168,410.563h-99.902v21.601h99.902c1.667,0,3.019-1.352,3.019-3.019v-15.564
					C440.187,411.914,438.835,410.563,437.168,410.563z"/>
				<path style="fill:#143966;" d="M295.942,338.235h-66.896c-2.209,0-4-1.791-4-4v-2.04h74.896v2.04
					C299.942,336.444,298.151,338.235,295.942,338.235z"/>
				<path style="fill:#DBB205;" d="M321.192,321.17h-58.698v11.025h58.698c3.044,0,5.512-2.468,5.512-5.512
					S324.236,321.17,321.192,321.17z"/>
				<path style="fill:#103151;" d="M262.494,338.235h33.448c2.209,0,4-1.791,4-4v-2.04h-37.448V338.235z"/>
			</g>
			<g>
				<path style="fill:#143966;" d="M655.531,421.638l-63.036-63.675c-2.806-2.835-4.38-6.662-4.38-10.651v-70.907h-29.296v70.907
					c0,3.989-1.574,7.816-4.38,10.651l-63.036,63.675c-3.785,3.824-1.077,10.316,4.303,10.316h155.522
					C656.608,431.954,659.316,425.461,655.531,421.638z"/>
				<path style="fill:#103151;" d="M592.495,357.963c-2.806-2.835-4.38-6.662-4.38-10.651v-70.907h-14.648v155.549h77.761
					c5.38,0,8.089-6.492,4.304-10.316L592.495,357.963z"/>
				<path style="fill:#195C9E;" d="M601.83,276.405h-56.727c-4.612,0-8.385-3.773-8.385-8.385l0,0c0-4.612,3.773-8.385,8.385-8.385
					h56.727c4.612,0,8.385,3.773,8.385,8.385l0,0C610.216,272.632,606.442,276.405,601.83,276.405z"/>
				<path style="fill:#9CD7E0;" d="M655.531,421.638l-40.747-41.16c-3.979,0.392-7.912,1.209-11.704,2.513
					c-12.428,4.273-24.462,13.211-37.327,10.525c-7.432-1.551-13.453-6.771-19.452-11.424c-2.982-2.313-6.199-4.57-9.611-6.201
					l-45.288,45.747c-3.785,3.824-1.077,10.316,4.303,10.316h155.522C656.608,431.954,659.316,425.461,655.531,421.638z"/>
				<path style="fill:#83C5CC;" d="M657.143,424.581c-0.06-0.272-0.139-0.541-0.24-0.807c-0.287-0.758-0.729-1.488-1.371-2.137
					l-40.747-41.16c-3.978,0.392-7.912,1.209-11.704,2.512c-9.914,3.409-19.578,9.78-29.613,10.857v38.107h77.761
					c0.769,0,1.476-0.145,2.125-0.384c2.471-0.909,3.995-3.342,3.941-5.845C657.286,425.342,657.226,424.961,657.143,424.581z"/>
				<path style="fill:#7ABAC1;" d="M542.375,396.519c0,3.124-2.532,5.656-5.657,5.656c-3.124,0-5.657-2.533-5.657-5.656
					c0-3.124,2.533-5.657,5.657-5.657C539.842,390.863,542.375,393.395,542.375,396.519z"/>
				<path style="fill:#7ABAC1;" d="M568.304,419.081c0,3.124-2.532,5.656-5.657,5.656c-3.124,0-5.656-2.533-5.656-5.656
					c0-3.124,2.533-5.657,5.656-5.657C565.771,413.424,568.304,415.957,568.304,419.081z"/>
				<path style="fill:#66A7AA;" d="M618.141,400.81c0,3.124-2.533,5.657-5.657,5.657c-3.124,0-5.657-2.533-5.657-5.657
					c0-3.124,2.532-5.657,5.657-5.657C615.609,395.153,618.141,397.685,618.141,400.81z"/>
				<circle style="fill:#9CD7E0;" cx="562.647" cy="370.415" r="5.657"/>
				<circle style="fill:#9CD7E0;" cx="566.345" cy="301.978" r="4.387"/>
				<circle style="fill:#83C5CC;" cx="580.658" cy="335.215" r="4.387"/>
				<path style="fill:#145284;" d="M601.83,259.634h-28.363v16.771h28.363c4.612,0,8.385-3.773,8.385-8.385
					C610.216,263.408,606.442,259.634,601.83,259.634z"/>
			</g>
			<g>
				<path style="fill:#195C9E;" d="M173.656,273.741h-56.727c-4.612,0-8.385-3.773-8.385-8.385l0,0c0-4.612,3.773-8.385,8.385-8.385
					h56.727c4.612,0,8.385,3.773,8.385,8.385l0,0C182.041,269.968,178.268,273.741,173.656,273.741z"/>
				<path style="fill:#143966;" d="M159.931,354.967v-81.226h-29.278v81.226c-15.345,5.889-26.242,20.753-26.242,38.171
					c0,22.578,18.303,40.881,40.881,40.881c22.578,0,40.881-18.303,40.881-40.881C186.173,375.72,175.276,360.856,159.931,354.967z"
					/>
				<path style="fill:#145284;" d="M173.656,256.97h-28.363v16.771h28.363c4.612,0,8.385-3.773,8.385-8.385
					C182.041,260.744,178.268,256.97,173.656,256.97z"/>
				<path style="fill:#103151;" d="M159.931,354.967v-81.226h-14.639v160.278c22.578,0,40.881-18.303,40.881-40.881
					C186.173,375.72,175.276,360.856,159.931,354.967z"/>
				<path style="fill:#F0C700;" d="M168.371,370.484c-7.879,2.785-14.219,10.155-22.575,10.279
					c-6.432,0.095-11.987-4.19-18.011-6.449c-5.896-2.21-12.464-2.269-18.507-0.526c-3.103,5.759-4.867,12.347-4.867,19.349
					c0,22.578,18.303,40.881,40.881,40.881c22.578,0,40.881-18.303,40.881-40.881c0-8.657-2.694-16.682-7.286-23.289
					C175.397,369.147,171.769,369.283,168.371,370.484z"/>
				<path style="fill:#DBB205;" d="M186.142,391.517c-0.01-0.25-0.029-0.497-0.044-0.745c-0.016-0.285-0.028-0.572-0.05-0.856
					c-0.023-0.297-0.057-0.591-0.086-0.886c-0.023-0.234-0.041-0.469-0.069-0.701c-0.038-0.323-0.086-0.643-0.132-0.964
					c-0.028-0.2-0.052-0.402-0.083-0.601c-0.057-0.365-0.125-0.726-0.192-1.087c-0.028-0.152-0.051-0.306-0.081-0.458
					c-0.081-0.412-0.172-0.82-0.265-1.227c-0.022-0.098-0.041-0.197-0.064-0.295c-0.105-0.443-0.22-0.882-0.339-1.319
					c-0.016-0.06-0.03-0.121-0.047-0.181c-0.125-0.45-0.259-0.897-0.399-1.341c-0.014-0.046-0.027-0.093-0.041-0.139
					c-0.147-0.461-0.304-0.919-0.467-1.373c-0.01-0.027-0.018-0.054-0.028-0.081c-0.171-0.472-0.35-0.94-0.537-1.403
					c-0.003-0.008-0.006-0.016-0.01-0.025c-1.146-2.835-2.601-5.511-4.323-7.988c-3.49-0.702-7.118-0.565-10.516,0.636
					c-7.879,2.785-14.219,10.155-22.575,10.279c-0.169,0.003-0.336-0.01-0.504-0.013v53.269c22.578,0,40.881-18.303,40.881-40.881
					C186.173,392.595,186.163,392.055,186.142,391.517z"/>
				<path style="fill:#DBB205;" d="M126.637,386.602c0,3.124-2.533,5.657-5.657,5.657c-3.124,0-5.657-2.533-5.657-5.657
					c0-3.124,2.533-5.656,5.657-5.656C124.104,380.945,126.637,383.478,126.637,386.602z"/>
				<path style="fill:#BC9908;" d="M172.915,393.854c0,3.124-2.533,5.657-5.657,5.657c-3.124,0-5.657-2.533-5.657-5.657
					c0-3.124,2.533-5.657,5.657-5.657C170.382,388.198,172.915,390.73,172.915,393.854z"/>
				<path style="fill:#F0C700;" d="M143.111,325.229c0,2.423-1.964,4.387-4.387,4.387c-2.423,0-4.387-1.964-4.387-4.387
					c0-2.423,1.964-4.388,4.387-4.388C141.147,320.841,143.111,322.806,143.111,325.229z"/>
				<circle style="fill:#DBB205;" cx="152.692" cy="293.113" r="4.387"/>
				<circle style="fill:#DBB205;" cx="152.692" cy="359.901" r="4.387"/>
				<circle style="fill:#DBB205;" cx="136.082" cy="417.274" r="4.387"/>
			</g>
		</g>
		<g>
			<g>
				<g>
					<g>
						<path style="fill:#9CD7E0;" d="M304.227,320.174c-0.589,0-1.906,0.442-2.721,0.737c-0.141,0.051-0.104,0.259,0.045,0.259
							h2.943c0.125,0,0.233-0.086,0.26-0.208l0.178-0.788H304.227z"/>
					</g>
					<g>
						<path style="fill:#9CD7E0;" d="M315.966,320.174c-0.589,0-1.906,0.442-2.721,0.737c-0.141,0.051-0.104,0.259,0.045,0.259
							h2.943c0.125,0,0.233-0.086,0.26-0.208l0.178-0.788H315.966z"/>
					</g>
					<g>
						<rect x="309.154" y="237.212" style="fill:#F1BAAC;" width="2.586" height="2.354"/>
					</g>
					<g>
						<ellipse style="fill:#F1BAAC;" cx="310.265" cy="232.6" rx="4.569" ry="5.095"/>
					</g>
					<g>
						<path style="fill:#F1BAAC;" d="M312.329,237.146c-0.305,0.158-0.589,0.499-0.589,1.119l-0.831-1.119l0.585-0.458
							L312.329,237.146z"/>
					</g>
					<g>
						<path style="fill:#F1BAAC;" d="M308.574,237.334c0.239,0.098,0.58,0.244,0.58,0.809l0.428-0.666l-0.853-0.88L308.574,237.334z
							"/>
					</g>
					<g>
						<path style="fill:#195C9E;" d="M301.851,266.051c0,0-5.551,20.254,2.376,54.122h0.706c0,0,5.517-22.367,5.517-42.962
							c0,20.595,5.517,42.962,5.517,42.962h0.706c7.927-33.868,2.376-54.122,2.376-54.122H301.851z"/>
					</g>
					<g>
						<path style="fill:none;stroke:#E50C0C;stroke-width:0.2671;stroke-miterlimit:10;" d="M311.743,239.374"/>
					</g>
					<g>
						<path style="fill:#143966;" d="M332.989,253.445l-7.887-9.209c-1.663-1.942-3.967-3.223-6.494-3.61l-6.904-1.059h-2.548
							l-6.865,1.059c-2.527,0.388-4.831,1.669-6.494,3.61l-7.887,9.209c-0.595,0.934-0.551,2.139,0.11,3.027l10.711,12.986
							l0.463-1.249l-5.354-11.862c-0.138-0.336-0.096-0.72,0.113-1.018l4.422-6.326c0,0,1.147,11.268,3.476,17.047h17.197
							c2.33-5.779,3.476-17.047,3.476-17.047l4.422,6.326c0.208,0.298,0.251,0.682,0.113,1.018l-5.354,11.862l0.463,1.249
							l10.711-12.986C333.54,255.584,333.583,254.38,332.989,253.445z"/>
					</g>
					<g>
						<path style="fill:#FFFFFF;" d="M325.102,244.236c-1.663-1.942-3.967-3.223-6.494-3.61l-6.279-0.963v26.389h6.719
							c2.33-5.779,3.476-17.047,3.476-17.047l4.422,6.326c0.208,0.298,0.251,0.682,0.113,1.018l-5.354,11.862l0.463,1.249
							l10.711-12.986c0.661-0.889,0.705-2.093,0.11-3.027L325.102,244.236z"/>
					</g>
					<g>
						<polygon style="fill:#F1BAAC;" points="309.156,239.566 310.447,242.499 311.741,239.566 311.743,238.805 309.156,238.805 
													"/>
					</g>
					<g>
						<rect x="312.329" y="248.305" style="fill:#FFFFFF;" width="10.539" height="40.019"/>
					</g>
					<g>
						<path style="fill:#F1BAAC;" d="M319.695,268.964c0.02-0.014,0.039-0.026,0.059-0.04c-0.367-0.05-0.637-0.212-0.664-0.435
							c-0.037-0.314,0.417-0.625,1.014-0.696c0.244-0.029,0.472-0.012,0.661,0.038c0.001,0,0.002,0,0.003,0
							c0.723,0.173,1.247,0.449,1.395,1.036l0,0c0.2,0.549-0.246,1.401-1.091,2.009c-0.936,0.674-2.003,0.793-2.383,0.265
							C318.31,270.613,318.76,269.638,319.695,268.964z"/>
					</g>
					<g>
						<polyline style="fill:#FFFFFF;" points="312.329,239.662 314.833,243.45 312.329,246.075 314.833,247.873 312.329,259.534 
													"/>
						<path style="fill:#195C9E;" d="M312.329,259.634c-0.007,0-0.014-0.001-0.021-0.002c-0.054-0.012-0.089-0.065-0.077-0.119
							l2.491-11.597l-2.451-1.76c-0.023-0.017-0.039-0.043-0.041-0.072c-0.003-0.029,0.007-0.057,0.027-0.078l2.449-2.566
							l-2.46-3.722c-0.031-0.046-0.018-0.108,0.028-0.139c0.046-0.03,0.108-0.018,0.139,0.028l2.504,3.788
							c0.026,0.039,0.021,0.091-0.011,0.124l-2.425,2.541l2.411,1.732c0.032,0.023,0.048,0.063,0.039,0.102l-2.504,11.661
							C312.417,259.602,312.375,259.634,312.329,259.634z"/>
					</g>
					<g>
						<path style="fill:#FFFFFF;" d="M295.797,244.236c1.663-1.942,3.967-3.223,6.494-3.61l6.279-0.963v26.389h-6.719
							c-2.33-5.779-3.476-17.047-3.476-17.047l-4.422,6.326c-0.208,0.298-0.251,0.682-0.113,1.018l5.354,11.862l-0.463,1.249
							l-10.711-12.986c-0.661-0.889-0.705-2.093-0.11-3.027L295.797,244.236z"/>
					</g>
					<g>
						
							<rect x="298.031" y="248.305" transform="matrix(-1 -1.224647e-16 1.224647e-16 -1 606.6008 536.6292)" style="fill:#FFFFFF;" width="10.539" height="40.019"/>
					</g>
					<g>
						<polyline style="fill:#FFFFFF;" points="308.57,239.662 306.065,243.45 308.57,246.075 306.065,247.873 308.57,259.534 						
							"/>
						<path style="fill:#195C9E;" d="M308.57,259.634c-0.047,0-0.088-0.032-0.098-0.079l-2.504-11.661
							c-0.009-0.039,0.007-0.079,0.039-0.102l2.41-1.732l-2.424-2.541c-0.032-0.034-0.037-0.085-0.011-0.124l2.504-3.788
							c0.031-0.046,0.093-0.059,0.139-0.028c0.046,0.03,0.059,0.093,0.028,0.139l-2.46,3.722l2.449,2.566
							c0.02,0.021,0.03,0.05,0.027,0.078c-0.003,0.029-0.018,0.055-0.041,0.072l-2.451,1.76l2.49,11.597
							c0.012,0.054-0.023,0.107-0.077,0.119C308.583,259.634,308.577,259.634,308.57,259.634z"/>
					</g>
					<g>
						<path style="fill:#F1BAAC;" d="M301.203,268.964c-0.02-0.014-0.039-0.026-0.059-0.04c0.367-0.05,0.637-0.212,0.664-0.435
							c0.037-0.314-0.417-0.625-1.014-0.696c-0.244-0.029-0.472-0.012-0.661,0.038c-0.001,0-0.002,0-0.003,0
							c-0.723,0.173-1.247,0.449-1.395,1.036l0,0c-0.2,0.549,0.246,1.401,1.091,2.009c0.935,0.674,2.002,0.793,2.383,0.265
							C302.589,270.613,302.139,269.638,301.203,268.964z"/>
					</g>
					<g>
						<rect x="318.224" y="269.853" style="fill:#FFFFFF;" width="3.988" height="3.988"/>
						<path style="fill:#195C9E;" d="M322.211,273.941h-3.988c-0.055,0-0.1-0.045-0.1-0.1v-3.988c0-0.055,0.045-0.1,0.1-0.1h3.988
							c0.055,0,0.1,0.045,0.1,0.1v3.988C322.312,273.897,322.267,273.941,322.211,273.941z M318.324,273.741h3.787v-3.787h-3.787
							V273.741z"/>
					</g>
					<g>
						<path style="fill:#195C9E;" d="M322.211,270.978h-3.988c-0.055,0-0.1-0.045-0.1-0.1c0-0.055,0.045-0.1,0.1-0.1h3.988
							c0.055,0,0.1,0.045,0.1,0.1C322.312,270.933,322.267,270.978,322.211,270.978z"/>
					</g>
					<g>
						
							<rect x="298.687" y="269.853" transform="matrix(-1 -1.224647e-16 1.224647e-16 -1 601.3625 543.6947)" style="fill:#FFFFFF;" width="3.988" height="3.988"/>
						<path style="fill:#195C9E;" d="M302.675,273.941h-3.988c-0.055,0-0.1-0.045-0.1-0.1v-3.988c0-0.055,0.045-0.1,0.1-0.1h3.988
							c0.055,0,0.1,0.045,0.1,0.1v3.988C302.775,273.897,302.73,273.941,302.675,273.941z M298.788,273.741h3.788v-3.787h-3.788
							V273.741z"/>
					</g>
					<g>
						<path style="fill:#195C9E;" d="M302.675,270.978h-3.988c-0.055,0-0.1-0.045-0.1-0.1c0-0.055,0.045-0.1,0.1-0.1h3.988
							c0.055,0,0.1,0.045,0.1,0.1C302.775,270.933,302.73,270.978,302.675,270.978z"/>
					</g>
					<g>
						<path style="fill:#2C485B;" d="M315.699,229.826c-0.308-1.848-1.831-3.551-3.702-3.653c-0.965-0.052-1.9,0.301-2.802,0.648
							c-1.047,0.404-2.094,0.807-3.142,1.211c-0.5,0.193-1.053,0.436-1.249,0.935c-0.306,0.781,0.453,1.553,1.17,1.988
							c2.394,1.451,5.297,2.041,8.067,1.641c0,0-0.593,2.559-0.344,3.364c0,0,0.225,0.034,0.954-0.979
							C315.892,233.251,316.008,231.673,315.699,229.826z"/>
					</g>
				</g>
				<g>
					<g>
						<path style="fill:#0E273F;" d="M398.124,325.21c0.22-1.538,0.117-2.785-0.189-3.796l0.001,0
							c-0.009-0.027-0.017-0.05-0.025-0.076c-0.026-0.083-0.053-0.165-0.081-0.244c-0.653-1.909-1.135-2.203-1.633-2.735v0.366
							c-0.815-0.695-1.737-1.093-2.498-1.317l-0.249,14.669l5.684,0.432C399.709,328.812,397.356,330.589,398.124,325.21z"/>
					</g>
					<g>
						<path style="fill:#9CD7E0;" d="M413.905,344.384l-6.342-9.303c-1.655-2.428-4.244-4.059-7.148-4.505l-5.558-0.853h-3.729
							l-6.227,0.956c-2.506,0.385-4.791,1.655-6.441,3.581l-6.985,8.156c-0.89,1.039-0.577,2.637,0.64,3.263l9.697,4.99l0.323-1.386
							l-4.939-5.384c-0.185-0.202-0.186-0.512-0.001-0.715l3.823-4.195c0,0,1.137,11.176,3.448,16.907h10.392h6.664
							c2.311-5.732,3.448-16.907,3.448-16.907l4.676,7.565c0.188,0.304,0.21,0.682,0.058,1.006l-6.543,13.982l1.312,1.207
							l9.458-14.223C414.765,347.269,414.755,345.631,413.905,344.384z"/>
					</g>
					<g>
						<path style="fill:#9CD7E0;" d="M386.821,409.575c-0.584,0-1.891,0.438-2.698,0.731c-0.14,0.05-0.104,0.257,0.045,0.257h2.918
							c0.124,0,0.231-0.086,0.258-0.207l0.177-0.781H386.821z"/>
					</g>
					<g>
						<path style="fill:#9CD7E0;" d="M398.464,409.575c-0.584,0-1.891,0.438-2.698,0.731c-0.14,0.05-0.104,0.257,0.045,0.257h2.919
							c0.124,0,0.231-0.086,0.258-0.207l0.177-0.781H398.464z"/>
					</g>
					<path style="fill:#E5BDAC;" d="M397.341,322.718c0-2.791-2.029-5.054-4.531-5.054c-2.502,0-4.531,2.263-4.531,5.054
						c0,2.13,1.184,3.943,2.856,4.687l-0.002,0.009c0.237,0.097,0.576,0.242,0.576,0.802v1.507h2.565v-1.385
						c0-0.616,0.281-0.954,0.584-1.11l-0.021-0.011C396.316,326.384,397.341,324.693,397.341,322.718z"/>
					<g>
						<path style="fill:#F0C700;" d="M384.465,355.896c0,0-5.506,20.088,2.357,53.679h0.7c0,0,5.471-22.184,5.471-42.61
							c0,20.426,5.471,42.61,5.471,42.61h0.7c7.862-33.59,2.357-53.679,2.357-53.679H384.465z"/>
					</g>
					<g>
						<path style="fill:none;stroke:#E50C0C;stroke-width:0.2649;stroke-miterlimit:10;" d="M394.275,329.437"/>
					</g>
					<g>
						
							<rect x="380.676" y="338.295" transform="matrix(-1 -1.224647e-16 1.224647e-16 -1 771.8044 716.2811)" style="fill:#FFFFFF;" width="10.452" height="39.691"/>
					</g>
					<g>
						<rect x="394.857" y="338.295" style="fill:#FFFFFF;" width="10.452" height="39.691"/>
					</g>
					<g>
						<path style="fill:#FFFFFF;" d="M407.563,335.081c-1.655-2.428-4.244-4.059-7.148-4.505l-5.558-0.853h-0.004v26.173h0.004
							h6.664c2.311-5.732,3.448-16.907,3.448-16.907l4.676,7.565c0.188,0.304,0.21,0.682,0.058,1.006l-6.543,13.982l1.312,1.207
							l9.458-14.223c0.836-1.257,0.826-2.895-0.024-4.142L407.563,335.081z"/>
					</g>
					<g>
						<path style="fill:#FFFFFF;" d="M378.46,334.259l-6.985,8.156c-0.89,1.039-0.577,2.637,0.64,3.263l9.697,4.99l0.323-1.386
							l-4.939-5.384c-0.185-0.202-0.186-0.512-0.001-0.715l3.823-4.195c0,0,1.137,11.176,3.448,16.907h6.664v-26.173l-6.227,0.956
							C382.395,331.063,380.11,332.333,378.46,334.259z"/>
					</g>
					<g>
						
							<rect x="381.327" y="359.667" transform="matrix(-1 -1.224647e-16 1.224647e-16 -1 766.609 723.2886)" style="fill:#FFFFFF;" width="3.955" height="3.955"/>
						<path style="fill:#195C9E;" d="M385.282,363.721h-3.955c-0.055,0-0.099-0.044-0.099-0.099v-3.955
							c0-0.055,0.044-0.099,0.099-0.099h3.955c0.055,0,0.099,0.044,0.099,0.099v3.955
							C385.381,363.677,385.337,363.721,385.282,363.721z M381.426,363.522h3.757v-3.756h-3.757V363.522z"/>
					</g>
					<g>
						<path style="fill:#195C9E;" d="M385.282,360.782h-3.955c-0.055,0-0.099-0.044-0.099-0.099c0-0.055,0.044-0.099,0.099-0.099
							h3.955c0.055,0,0.099,0.044,0.099,0.099C385.381,360.737,385.337,360.782,385.282,360.782z"/>
					</g>
					<g>
						<rect x="400.703" y="359.667" style="fill:#FFFFFF;" width="3.955" height="3.955"/>
						<path style="fill:#195C9E;" d="M404.658,363.721h-3.955c-0.055,0-0.099-0.044-0.099-0.099v-3.955
							c0-0.055,0.045-0.099,0.099-0.099h3.955c0.055,0,0.099,0.044,0.099,0.099v3.955
							C404.758,363.677,404.713,363.721,404.658,363.721z M400.802,363.522h3.756v-3.756h-3.756V363.522z"/>
					</g>
					<g>
						<path style="fill:#195C9E;" d="M404.658,360.782h-3.955c-0.055,0-0.099-0.044-0.099-0.099c0-0.055,0.045-0.099,0.099-0.099
							h3.955c0.055,0,0.099,0.044,0.099,0.099C404.758,360.737,404.713,360.782,404.658,360.782z"/>
					</g>
					<g>
						<path style="fill:#195C9E;" d="M391.128,349.532c-0.046,0-0.087-0.032-0.097-0.078l-2.483-11.565
							c-0.009-0.039,0.007-0.079,0.039-0.102l2.391-1.717l-2.405-2.52c-0.032-0.034-0.036-0.085-0.011-0.123l2.484-3.757
							c0.03-0.046,0.092-0.058,0.138-0.028c0.046,0.03,0.058,0.092,0.028,0.138l-2.44,3.691l2.429,2.545
							c0.02,0.021,0.03,0.049,0.027,0.078c-0.003,0.029-0.017,0.055-0.041,0.072l-2.431,1.746l2.47,11.502
							c0.012,0.053-0.022,0.106-0.076,0.118C391.142,349.531,391.135,349.532,391.128,349.532z"/>
					</g>
					<g>
						<path style="fill:#195C9E;" d="M394.857,349.532c-0.007,0-0.014-0.001-0.021-0.002c-0.053-0.011-0.088-0.064-0.076-0.118
							l2.47-11.502l-2.431-1.746c-0.023-0.017-0.038-0.043-0.041-0.072c-0.003-0.029,0.007-0.057,0.027-0.078l2.429-2.545
							l-2.44-3.691c-0.03-0.046-0.018-0.108,0.028-0.138c0.045-0.03,0.107-0.018,0.138,0.028l2.484,3.757
							c0.026,0.039,0.021,0.09-0.011,0.123l-2.405,2.52l2.391,1.717c0.032,0.023,0.048,0.063,0.039,0.102l-2.484,11.565
							C394.944,349.5,394.903,349.532,394.857,349.532z"/>
					</g>
					<g>
						<path style="fill:#143966;" d="M395.134,354.126h-9.59c-0.245,0-0.459-0.169-0.516-0.408l-3.389-14.298
							c-0.079-0.333,0.174-0.652,0.516-0.652h9.59c0.245,0,0.459,0.169,0.516,0.408l3.389,14.298
							C395.729,353.807,395.476,354.126,395.134,354.126z"/>
					</g>
					<g>
						<path style="fill:#E5BDAC;" d="M402.118,363.387c0.006-0.023,0.013-0.045,0.02-0.068c-0.313,0.193-0.621,0.241-0.783,0.087
							c-0.227-0.216-0.077-0.741,0.335-1.173c0.168-0.176,0.353-0.307,0.53-0.388c0.001-0.001,0.001-0.002,0.002-0.002
							c0.662-0.325,1.237-0.444,1.721-0.09l0,0.001c0.5,0.293,0.697,1.226,0.436,2.225c-0.289,1.107-1.03,1.872-1.654,1.709
							C402.101,365.523,401.829,364.493,402.118,363.387z"/>
					</g>
					<g>
						<path style="fill:#E5BDAC;" d="M384.12,349.701c-0.022-0.009-0.044-0.017-0.066-0.026c0.345-0.128,0.571-0.343,0.549-0.564
							c-0.032-0.312-0.538-0.516-1.132-0.456c-0.243,0.025-0.459,0.091-0.632,0.18c-0.001,0-0.002,0-0.003,0
							c-0.663,0.323-1.11,0.704-1.128,1.303l0,0c-0.076,0.574,0.54,1.303,1.489,1.71c1.051,0.451,2.109,0.336,2.364-0.257
							C385.817,350.999,385.171,350.152,384.12,349.701z"/>
					</g>
					<g>
						<polygon style="fill:#313B49;" points="383.691,348.073 384.055,349.675 385.343,349.675 385.343,347.773 						"/>
					</g>
					<g>
						<g>
							<polygon style="fill:#FFFFFF;" points="403.16,361.541 405.309,356.948 405.278,361.536 404.471,362.749 							"/>
						</g>
					</g>
					<g>
						<path style="fill:#195C9E;" d="M403.16,361.641c-0.014,0-0.028-0.003-0.042-0.009c-0.05-0.023-0.071-0.082-0.048-0.132
							l2.149-4.593c0.023-0.05,0.083-0.07,0.132-0.048c0.05,0.023,0.071,0.082,0.048,0.132l-2.149,4.593
							C403.233,361.62,403.197,361.641,403.16,361.641z"/>
					</g>
					<g>
						<path style="fill:#195C9E;" d="M404.471,362.848c-0.019,0-0.038-0.005-0.055-0.017c-0.046-0.03-0.058-0.092-0.028-0.138
							l0.807-1.213c0.031-0.046,0.092-0.058,0.138-0.028c0.046,0.03,0.058,0.092,0.028,0.138l-0.807,1.213
							C404.535,362.833,404.503,362.848,404.471,362.848z"/>
					</g>
					<g>
						<rect x="391.708" y="328.508" style="fill:#9CD7E0;" width="2.565" height="1.215"/>
					</g>
					<g>
						<path style="fill:#0E273F;" d="M389.279,317.794c-0.061,0.034-0.115,0.07-0.167,0.105l0.001-0.002
							c-0.002,0.002-0.004,0.004-0.006,0.005c-0.231,0.157-0.382,0.325-0.477,0.491c-0.329,0.436-0.485,0.961-0.474,1.712
							l0.001-0.003c-0.033,1.096,0.87,2.22,5.78,1.565c-0.058,2.063,2.401,4.083,1.343,5.288c0,0,2.257-1.046,2.418-4.032
							C398.093,315.558,390.499,317.111,389.279,317.794z"/>
					</g>
				</g>
				<path style="fill:#143966;" d="M322.859,442.23l0.803-0.019l-3.212-132.197l-0.803,0.019l0.35,14.392h-20.35l0.35-14.392
					l-0.803-0.019l-3.212,132.197l0.803,0.019l0.358-14.714h25.36L322.859,442.23z M320.991,365.341h-22.338l0.478-19.654h21.383
					L320.991,365.341z M321.01,366.144l0.478,19.655h-23.332l0.478-19.655H321.01z M321.507,386.602l0.478,19.654h-24.327
					l0.478-19.654H321.507z M299.627,325.229h20.389l0.478,19.655H299.15L299.627,325.229z M297.161,426.714l0.478-19.655h24.366
					l0.478,19.655H297.161z"/>
			</g>
			<g>
				<g>
					<g>
						<path style="fill:#195C9E;" d="M445.481,367.005l6.38-9.359c1.665-2.442,4.269-4.084,7.191-4.532l5.592-0.858h3.751
							l6.265,0.961c2.521,0.387,4.82,1.665,6.479,3.602l7.027,8.205c0.895,1.045,0.58,2.652-0.644,3.282l-9.755,5.02l-0.325-1.394
							l4.969-5.417c0.186-0.203,0.187-0.515,0.001-0.719l-3.846-4.22c0,0-1.144,11.243-3.469,17.009h-10.455h-6.704
							c-2.325-5.766-3.469-17.009-3.469-17.009l-4.704,7.61c-0.189,0.306-0.211,0.686-0.059,1.012l6.583,14.066l-1.32,1.215
							l-9.515-14.308C444.617,369.908,444.626,368.26,445.481,367.005z"/>
					</g>
					<g>
						<path style="fill:#143966;" d="M472.024,432.588c-0.587,0-1.902,0.441-2.715,0.735c-0.14,0.051-0.104,0.259,0.045,0.259h2.936
							c0.125,0,0.232-0.086,0.26-0.208l0.178-0.786H472.024z"/>
					</g>
					<g>
						<path style="fill:#143966;" d="M460.312,432.588c-0.587,0-1.902,0.441-2.715,0.735c-0.14,0.051-0.104,0.259,0.045,0.259h2.936
							c0.125,0,0.232-0.086,0.26-0.208l0.178-0.786H460.312z"/>
					</g>
					<g>
						
							<rect x="465.231" y="348.64" transform="matrix(-1 -1.224647e-16 1.224647e-16 -1 933.0435 700.8961)" style="fill:#F1BAAC;" width="2.581" height="3.616"/>
					</g>
					<g>
						<path style="fill:#F1BAAC;" d="M461.24,348.253c1.762,2.186,4.78,2.677,6.74,1.097c1.96-1.58,2.12-4.633,0.358-6.819
							c-1.762-2.186-4.78-2.677-6.74-1.097C459.638,343.014,459.478,346.067,461.24,348.253z"/>
					</g>
					<g>
						<path style="fill:#9CD7E0;" d="M475.099,378.586c0,0,5.539,20.209-2.371,54.002h-0.704c0,0-5.504-22.317-5.504-42.866
							c0,20.549-5.504,42.866-5.504,42.866h-0.704c-7.91-33.793-2.371-54.002-2.371-54.002H475.099z"/>
					</g>
					<g>
						<path style="fill:none;stroke:#E50C0C;stroke-width:0.2665;stroke-miterlimit:10;" d="M465.229,351.969"/>
					</g>
					<g>
						<rect x="468.395" y="360.88" style="fill:#FFFFFF;" width="10.515" height="39.929"/>
					</g>
					<g>
						
							<rect x="454.129" y="360.88" transform="matrix(-1 -1.224647e-16 1.224647e-16 -1 918.7733 761.6896)" style="fill:#FFFFFF;" width="10.515" height="39.929"/>
					</g>
					<g>
						<path style="fill:#FFFFFF;" d="M451.861,357.646c1.665-2.442,4.269-4.084,7.191-4.532l5.592-0.858h0.004v26.33h-0.004h-6.704
							c-2.325-5.766-3.469-17.009-3.469-17.009l-4.704,7.61c-0.189,0.306-0.211,0.686-0.059,1.012l6.583,14.066l-1.32,1.215
							l-9.515-14.308c-0.841-1.264-0.831-2.912,0.024-4.167L451.861,357.646z"/>
					</g>
					<g>
						<path style="fill:#FFFFFF;" d="M481.139,356.82l7.027,8.205c0.895,1.045,0.58,2.652-0.644,3.282l-9.755,5.02l-0.325-1.394
							l4.969-5.417c0.186-0.203,0.187-0.515,0.001-0.719l-3.846-4.22c0,0-1.144,11.243-3.469,17.009h-6.704v-26.33l6.265,0.961
							C477.181,353.604,479.48,354.883,481.139,356.82z"/>
					</g>
					<g>
						<rect x="474.277" y="382.38" style="fill:#FFFFFF;" width="3.979" height="3.979"/>
						<path style="fill:#195C9E;" d="M478.255,386.459h-3.979c-0.055,0-0.1-0.045-0.1-0.1v-3.979c0-0.055,0.045-0.1,0.1-0.1h3.979
							c0.055,0,0.1,0.045,0.1,0.1v3.979C478.355,386.414,478.31,386.459,478.255,386.459z M474.377,386.259h3.779v-3.779h-3.779
							V386.259z"/>
					</g>
					<g>
						<path style="fill:#195C9E;" d="M478.255,383.502h-3.979c-0.055,0-0.1-0.045-0.1-0.1c0-0.055,0.045-0.1,0.1-0.1h3.979
							c0.055,0,0.1,0.045,0.1,0.1C478.355,383.457,478.31,383.502,478.255,383.502z"/>
					</g>
					<g>
						<path style="fill:#195C9E;" d="M468.395,372.184c-0.007,0-0.014-0.001-0.021-0.002c-0.054-0.012-0.088-0.065-0.077-0.119
							l2.485-11.571l-2.445-1.757c-0.023-0.017-0.039-0.043-0.041-0.072c-0.003-0.029,0.007-0.057,0.027-0.078l2.444-2.561
							l-2.455-3.713c-0.031-0.046-0.018-0.108,0.028-0.139c0.046-0.03,0.108-0.018,0.138,0.028l2.499,3.78
							c0.026,0.039,0.021,0.09-0.011,0.124l-2.419,2.535l2.405,1.728c0.032,0.023,0.048,0.063,0.039,0.102l-2.499,11.635
							C468.483,372.152,468.441,372.184,468.395,372.184z"/>
					</g>
					<g>
						<path style="fill:#195C9E;" d="M464.644,372.184c-0.046,0-0.088-0.032-0.098-0.079l-2.498-11.635
							c-0.009-0.039,0.007-0.079,0.039-0.102l2.405-1.728l-2.419-2.535c-0.032-0.034-0.037-0.085-0.011-0.124l2.499-3.78
							c0.03-0.046,0.093-0.058,0.138-0.028c0.046,0.03,0.059,0.093,0.028,0.138l-2.454,3.713l2.444,2.561
							c0.02,0.021,0.03,0.049,0.027,0.078c-0.003,0.029-0.018,0.055-0.041,0.072l-2.445,1.757l2.485,11.571
							c0.012,0.054-0.023,0.107-0.076,0.119C464.658,372.183,464.651,372.184,464.644,372.184z"/>
					</g>
					<g>
						<path style="fill:#F0C700;" d="M464.365,376.806h9.648c0.247,0,0.462-0.17,0.519-0.41l3.41-14.384
							c0.079-0.335-0.175-0.656-0.519-0.656h-9.648c-0.247,0-0.462,0.17-0.519,0.41l-3.41,14.384
							C463.767,376.485,464.021,376.806,464.365,376.806z"/>
					</g>
					<g>
						<path style="fill:#F1BAAC;" d="M457.34,386.122c-0.006-0.023-0.014-0.045-0.02-0.068c0.315,0.195,0.625,0.242,0.787,0.087
							c0.228-0.217,0.077-0.746-0.337-1.18c-0.169-0.177-0.355-0.309-0.533-0.391c-0.001-0.001-0.001-0.002-0.002-0.002
							c-0.666-0.327-1.245-0.447-1.732-0.091l0,0c-0.503,0.295-0.701,1.234-0.439,2.239c0.291,1.113,1.036,1.883,1.664,1.719
							S457.63,387.236,457.34,386.122z"/>
					</g>
					<g>
						<path style="fill:#F1BAAC;" d="M475.445,372.355c0.022-0.009,0.044-0.017,0.066-0.026c-0.347-0.129-0.575-0.345-0.552-0.568
							c0.032-0.314,0.542-0.519,1.139-0.459c0.244,0.025,0.462,0.091,0.636,0.181c0.001,0,0.002,0,0.003,0.001
							c0.667,0.325,1.117,0.708,1.134,1.311l0,0c0.076,0.578-0.544,1.311-1.498,1.721c-1.057,0.454-2.122,0.338-2.378-0.259
							C473.738,373.66,474.388,372.809,475.445,372.355z"/>
					</g>
					<g>
						<polygon style="fill:#F0C700;" points="475.878,370.717 475.511,372.329 474.215,372.329 474.215,370.415 						"/>
					</g>
					<g>
						<g>
							<polygon style="fill:#FFFFFF;" points="456.292,384.266 454.129,379.645 454.161,384.261 454.972,385.481 							"/>
						</g>
					</g>
					<g>
						
							<rect x="465.231" y="351.034" transform="matrix(-1 -1.224647e-16 1.224647e-16 -1 933.0435 703.2903)" style="fill:#195C9E;" width="2.581" height="1.222"/>
					</g>
					<g>
						<path style="fill:#0E303D;" d="M464.444,339.306c0.069-0.012,0.134-0.018,0.197-0.023l-0.002-0.001c0.003,0,0.006,0,0.008,0
							c0.28-0.023,0.504,0.013,0.684,0.083c0.533,0.134,0.987,0.446,1.453,1.042l-0.003-0.002c0.718,0.837,0.72,2.289-3.539,4.876
							c1.348,1.579,0.698,4.713,2.287,4.989c0,0-2.428,0.606-4.439-1.631C456.129,343.12,463.058,339.541,464.444,339.306z"/>
					</g>
					<g>
						<path style="fill:#F1BAAC;" d="M468.298,349.064c-0.216,0.2-0.486,0.404-0.486,0.92c0,0.517-0.383-0.119-0.383-0.119v-1.451
							h0.716L468.298,349.064z"/>
					</g>
				</g>
			</g>
		</g>
	</g>
</g>
</svg>
